<?xml version="1.0" encoding="UTF-8" standalone="no"?>
<svg
   xmlns:dc="http://purl.org/dc/elements/1.1/"
   xmlns:cc="http://creativecommons.org/ns#"
   xmlns:rdf="http://www.w3.org/1999/02/22-rdf-syntax-ns#"
   xmlns:svg="http://www.w3.org/2000/svg"
   xmlns="http://www.w3.org/2000/svg"
   xmlns:sodipodi="http://sodipodi.sourceforge.net/DTD/sodipodi-0.dtd"
   xmlns:inkscape="http://www.inkscape.org/namespaces/inkscape"
   version="1.1"
   width="412.86981"
   height="288.92685"
   id="svg3740"
   viewBox="0 0 412.86981 288.92685"
   sodipodi:docname="g3solutions.svg"
   inkscape:version="0.92.1 unknown">
  <metadata
     id="metadata3746">
    <rdf:RDF>
      <cc:Work
         rdf:about="">
        <dc:format>image/svg+xml</dc:format>
        <dc:type
           rdf:resource="http://purl.org/dc/dcmitype/StillImage" />
        <dc:title></dc:title>
      </cc:Work>
    </rdf:RDF>
  </metadata>
  <defs
     id="defs3744" />
  <sodipodi:namedview
     pagecolor="#ffffff"
     bordercolor="#666666"
     borderopacity="1"
     objecttolerance="10"
     gridtolerance="10"
     guidetolerance="10"
     inkscape:pageopacity="0"
     inkscape:pageshadow="2"
     inkscape:window-width="1366"
     inkscape:window-height="708"
     id="namedview3742"
     showgrid="false"
     fit-margin-top="0"
     fit-margin-left="0"
     fit-margin-right="0"
     fit-margin-bottom="0"
     inkscape:zoom="0.6295361"
     inkscape:cx="214.15589"
     inkscape:cy="103.97301"
     inkscape:window-x="0"
     inkscape:window-y="31"
     inkscape:window-maximized="1"
     inkscape:current-layer="Layer1000" />
  <g
     id="Layer1000"
     transform="translate(-83.4819,-235.99104)">
    <path
       d="m 213.7695,490.5887 c -0.6033,-1.0894 -1.4154,-1.9896 -2.4336,-2.698 -1.0185,-0.709 -2.1827,-1.2262 -3.5049,-1.5565 -1.3179,-0.3294 -2.7194,-0.4955 -4.2044,-0.4955 -1.1547,0 -2.3247,0.1161 -3.5035,0.3427 -1.185,0.2321 -2.2714,0.6092 -3.2614,1.1388 -0.9908,0.5322 -1.7854,1.2321 -2.3923,2.0929 -0.6057,0.8592 -0.907,1.9236 -0.907,3.1876 0,1.0676 0.2867,1.9658 0.8667,2.6995 0.5757,0.7331 1.3036,1.3521 2.183,1.8615 0.8836,0.5046 1.8468,0.922 2.8871,1.2542 1.0459,0.3294 2.0068,0.5933 2.8911,0.7962 l 6.928,1.4418 c 1.4831,0.2041 2.9532,0.5695 4.4109,1.1033 1.4542,0.5322 2.7503,1.2256 3.8787,2.0858 1.1252,0.8625 2.0471,1.9282 2.7607,3.1941 0.712,1.2662 1.0744,2.7594 1.0744,4.4794 0,2.1278 -0.524,3.9376 -1.5666,5.4353 -1.0471,1.4909 -2.382,2.7054 -4.0025,3.6446 -1.6216,0.9369 -3.4509,1.6056 -5.4831,2.014 -2.0367,0.4005 -4.0406,0.6043 -6.0256,0.6043 -4.9993,0 -9.058,-1.0848 -12.1637,-3.2665 -3.1059,-2.1739 -4.8806,-5.6674 -5.3211,-10.482 h 5.1976 c 0.2165,3.2412 1.4964,5.6894 3.8361,7.3308 2.3371,1.6457 5.2353,2.4704 8.6998,2.4704 1.2663,0 2.5692,-0.1251 3.92,-0.38 1.3488,-0.2507 2.5988,-0.683 3.7526,-1.2932 1.155,-0.6093 2.1033,-1.3778 2.8442,-2.3157 0.7432,-0.9346 1.1115,-2.0887 1.1115,-3.4577 0,-1.1645 -0.2627,-2.1378 -0.7799,-2.9222 -0.5254,-0.7868 -1.225,-1.4451 -2.1024,-1.9782 -0.882,-0.5309 -1.8829,-0.9714 -3.0139,-1.3284 -1.1275,-0.352 -2.2663,-0.6566 -3.421,-0.9073 l -6.6803,-1.3712 c -1.7068,-0.4051 -3.2734,-0.8739 -4.7015,-1.4041 -1.4321,-0.5345 -2.6798,-1.1902 -3.7549,-1.9746 -1.0708,-0.7868 -1.9109,-1.7481 -2.5155,-2.8901 -0.605,-1.1411 -0.9061,-2.5448 -0.9061,-4.2145 0,-1.9776 0.4828,-3.6723 1.4405,-5.0887 0.9639,-1.4197 2.2162,-2.5621 3.7552,-3.4187 1.5409,-0.8651 3.2555,-1.4944 5.1569,-1.9018 1.897,-0.4037 3.7776,-0.6056 5.6459,-0.6056 2.1479,0 4.1401,0.2535 5.9808,0.7561 1.8419,0.5124 3.4658,1.2923 4.8695,2.3576 1.4015,1.0653 2.513,2.38 3.3374,3.9525 0.8248,1.5689 1.2949,3.4171 1.4002,5.5425 h -5.1917 c -0.0527,-1.4645 -0.3875,-2.7457 -0.9919,-3.8354 z"
       style="fill:#565757;fill-rule:evenodd"
       id="path3699"
       inkscape:connector-curvature="0" />
    <path
       d="m 240.4109,487.286 c -1.8683,0.9597 -3.4187,2.2273 -4.6595,3.7962 -1.2399,1.5702 -2.1723,3.3565 -2.8066,5.3568 -0.6319,1.9981 -0.945,4.039 -0.945,6.115 0,2.0784 0.3131,4.1128 0.945,6.1141 0.6343,2 1.5667,3.7857 2.8066,5.3556 1.2408,1.5724 2.7912,2.8361 4.6595,3.8006 1.8706,0.96 4.0403,1.4431 6.5165,1.4431 2.4737,0 4.6482,-0.4831 6.5152,-1.4431 1.8683,-0.9645 3.4258,-2.2282 4.6645,-3.8006 1.2337,-1.5699 2.1696,-3.3556 2.8016,-5.3556 0.632,-2.0013 0.9506,-4.0357 0.9506,-6.1141 0,-2.076 -0.3186,-4.1169 -0.9506,-6.115 -0.632,-2.0003 -1.5679,-3.7866 -2.8016,-5.3568 -1.2387,-1.5689 -2.7962,-2.8365 -4.6645,-3.7962 -1.867,-0.9642 -4.0415,-1.4473 -6.5152,-1.4473 -2.4762,0 -4.6459,0.4831 -6.5165,1.4473 z m 15.1351,-3.8019 c 2.5035,1.116 4.6059,2.6111 6.3133,4.4807 1.7022,1.8774 2.998,4.0683 3.8741,6.576 0.8787,2.5039 1.3212,5.1784 1.3212,8.0132 0,2.8371 -0.4425,5.5088 -1.3212,8.0142 -0.8761,2.5085 -2.1719,4.7012 -3.8741,6.5718 -1.7074,1.8761 -3.8098,3.3543 -6.3133,4.4427 -2.5003,1.0894 -5.3754,1.632 -8.6186,1.632 -3.2421,0 -6.115,-0.5426 -8.6176,-1.632 -2.4999,-1.0884 -4.6082,-2.5666 -6.31,-4.4427 -1.7042,-1.8706 -2.9967,-4.0633 -3.8787,-6.5718 -0.8784,-2.5054 -1.3199,-5.1771 -1.3199,-8.0142 0,-2.8348 0.4415,-5.5093 1.3199,-8.0132 0.882,-2.5077 2.1745,-4.6986 3.8787,-6.576 1.7018,-1.8696 3.8101,-3.3647 6.31,-4.4807 2.5026,-1.1122 5.3755,-1.6687 8.6176,-1.6687 3.2432,0 6.1183,0.5565 8.6186,1.6687 z"
       style="fill:#565757;fill-rule:evenodd"
       id="path3701"
       inkscape:connector-curvature="0" />
    <path
       d="m 274.89,522.1536 h 5.1953 V 470.8184 H 274.89 Z"
       style="fill:#565757;fill-rule:evenodd"
       id="path3703"
       inkscape:connector-curvature="0" />
    <path
       d="m 319.763,522.1536 v -7.0656 h -0.1697 c -1.3703,2.6333 -3.367,4.6469 -5.9762,6.0393 -2.6115,1.3924 -5.513,2.0874 -8.7047,2.0874 -2.6941,0 -4.9876,-0.3426 -6.8832,-1.025 -1.8992,-0.6824 -3.4363,-1.6586 -4.6186,-2.9223 -1.187,-1.2639 -2.0517,-2.812 -2.6034,-4.6345 -0.5458,-1.8202 -0.8234,-3.9005 -0.8234,-6.2298 v -25.4486 h 5.1988 v 25.5231 c 0.1054,3.5497 1.001,6.2275 2.6814,8.0564 1.6778,1.8225 4.5757,2.7334 8.6953,2.7334 2.2594,0 4.1862,-0.445 5.7769,-1.3306 1.5985,-0.8875 2.9187,-2.0621 3.9645,-3.5334 1.039,-1.4678 1.8098,-3.1515 2.3052,-5.0497 0.4942,-1.9002 0.7432,-3.8374 0.7432,-5.8101 v -20.5891 h 5.1963 v 39.1991 z"
       style="fill:#565757;fill-rule:evenodd"
       id="path3705"
       inkscape:connector-curvature="0" />
    <path
       d="m 351.2707,482.9545 v 4.0243 h -8.6644 v 26.4373 c 0,1.5711 0.2373,2.8003 0.7064,3.6862 0.461,0.8852 1.6284,1.3839 3.5026,1.4814 1.4827,0 2.9681,-0.078 4.4554,-0.2272 v 4.0221 c -0.7731,0 -1.5436,0.0243 -2.3121,0.0803 -0.7659,0.0471 -1.5403,0.0747 -2.3108,0.0747 -3.4612,0 -5.8845,-0.6202 -7.2573,-1.8605 -1.3716,-1.2431 -2.0299,-3.5331 -1.9786,-6.8754 v -26.8189 h -7.4235 v -4.0243 h 7.4235 v -12.1361 h 5.1944 v 12.1361 z"
       style="fill:#565757;fill-rule:evenodd"
       id="path3707"
       inkscape:connector-curvature="0" />
    <path
       d="m 364.0559,482.9545 v 39.1991 h -5.2011 v -39.1991 z m 0,-12.1361 v 6.8813 h -5.2011 v -6.8813 z"
       style="fill:#565757;fill-rule:evenodd"
       id="path3709"
       inkscape:connector-curvature="0" />
    <path
       d="m 385.4975,487.286 c -1.8683,0.9597 -3.4187,2.2273 -4.655,3.7962 -1.2432,1.5702 -2.1746,3.3565 -2.8111,5.3568 -0.6297,1.9981 -0.9451,4.039 -0.9451,6.115 0,2.0784 0.3154,4.1128 0.9451,6.1141 0.6365,2 1.5679,3.7857 2.8111,5.3556 1.2363,1.5724 2.7867,2.8361 4.655,3.8006 1.8728,0.96 4.0402,1.4431 6.5129,1.4431 2.4808,0 4.6531,-0.4831 6.521,-1.4431 1.8661,-0.9645 3.42,-2.2282 4.6609,-3.8006 1.2331,-1.5699 2.171,-3.3556 2.803,-5.3556 0.6319,-2.0013 0.9496,-4.0357 0.9496,-6.1141 0,-2.076 -0.3177,-4.1169 -0.9496,-6.115 -0.632,-2.0003 -1.5699,-3.7866 -2.803,-5.3568 -1.2409,-1.5689 -2.7948,-2.8365 -4.6609,-3.7962 -1.8679,-0.9642 -4.0402,-1.4473 -6.521,-1.4473 -2.4727,0 -4.6401,0.4831 -6.5129,1.4473 z m 15.1373,-3.8019 c 2.5048,1.116 4.6014,2.6111 6.3101,4.4807 1.7041,1.8774 2.9944,4.0683 3.8751,6.576 0.8787,2.5039 1.3212,5.1784 1.3212,8.0132 0,2.8371 -0.4425,5.5088 -1.3212,8.0142 -0.8807,2.5085 -2.171,4.7012 -3.8751,6.5718 -1.7087,1.8761 -3.8053,3.3543 -6.3101,4.4427 -2.5022,1.0894 -5.3777,1.632 -8.6244,1.632 -3.2409,0 -6.1127,-0.5426 -8.6163,-1.632 -2.4999,-1.0884 -4.6056,-2.5666 -6.3078,-4.4427 -1.7028,-1.8706 -2.9954,-4.0633 -3.8796,-6.5718 -0.8784,-2.5054 -1.3144,-5.1771 -1.3144,-8.0142 0,-2.8348 0.436,-5.5093 1.3144,-8.0132 0.8842,-2.5077 2.1768,-4.6986 3.8796,-6.576 1.7022,-1.8696 3.8079,-3.3647 6.3078,-4.4807 2.5036,-1.1122 5.3754,-1.6687 8.6163,-1.6687 3.2467,0 6.1222,0.5565 8.6244,1.6687 z"
       style="fill:#565757;fill-rule:evenodd"
       id="path3711"
       inkscape:connector-curvature="0" />
    <path
       d="m 425.0113,482.9545 v 6.7593 h 0.1674 c 0.9863,-2.3774 2.7467,-4.2889 5.2733,-5.7366 2.5267,-1.4391 5.3088,-2.1618 8.3332,-2.1618 2.9681,0 5.4553,0.3546 7.4647,1.0643 2.0036,0.7058 3.6115,1.7064 4.8248,3.0026 1.21,1.29 2.0588,2.8715 2.5542,4.746 0.4955,1.8726 0.7455,3.9772 0.7455,6.3039 v 25.2214 h -5.1941 v -24.4597 c 0,-1.6733 -0.17,-3.2318 -0.4967,-4.6726 -0.3303,-1.446 -0.907,-2.6982 -1.7295,-3.7626 -0.8244,-1.063 -1.945,-1.8995 -3.3442,-2.5071 -1.4002,-0.607 -3.1515,-0.9129 -5.2422,-0.9129 -2.0851,0 -3.9463,0.3427 -5.5636,1.0276 -1.6216,0.686 -3.0013,1.6219 -4.1216,2.8108 -1.1332,1.1908 -2.0094,2.6092 -2.6413,4.2551 -0.633,1.6466 -0.976,3.4288 -1.0299,5.3547 v 22.8667 h -5.1976 v -39.1991 z"
       style="fill:#565757;fill-rule:evenodd"
       id="path3713"
       inkscape:connector-curvature="0" />
    <path
       d="m 488.6837,490.5887 c -0.602,-1.0894 -1.4106,-1.9896 -2.4349,-2.698 -1.0159,-0.709 -2.1811,-1.2262 -3.5023,-1.5565 -1.3202,-0.3294 -2.7194,-0.4955 -4.2021,-0.4955 -1.1606,0 -2.3283,0.1161 -3.5107,0.3427 -1.1824,0.2321 -2.2649,0.6092 -3.2571,1.1388 -0.9873,0.5322 -1.7844,1.2321 -2.3946,2.0929 -0.6021,0.8592 -0.9048,1.9236 -0.9048,3.1876 0,1.0676 0.289,1.9658 0.8648,2.6995 0.5757,0.7331 1.3062,1.3521 2.1836,1.8615 0.8784,0.5046 1.844,0.922 2.8901,1.2542 1.0436,0.3294 2.0068,0.5933 2.8878,0.7962 l 6.9281,1.4418 c 1.4827,0.2041 2.9567,0.5695 4.4141,1.1033 1.4567,0.5322 2.7444,1.2256 3.8732,2.0858 1.1274,0.8625 2.0516,1.9282 2.7684,3.1941 0.7123,1.2662 1.0644,2.7594 1.0644,4.4794 0,2.1278 -0.5149,3.9376 -1.5656,5.4353 -1.0413,1.4909 -2.3729,2.7054 -3.9967,3.6446 -1.6265,0.9369 -3.4509,1.6056 -5.4879,2.014 -2.0332,0.4005 -4.0426,0.6043 -6.0185,0.6043 -5.0061,0 -9.0626,-1.0848 -12.1673,-3.2665 -3.1066,-2.1739 -4.8786,-5.6674 -5.3201,-10.482 h 5.194 c 0.2181,3.2412 1.5036,5.6894 3.8374,7.3308 2.3338,1.6457 5.2379,2.4704 8.7024,2.4704 1.2663,0 2.5689,-0.1251 3.9177,-0.38 1.3511,-0.2507 2.5943,-0.683 3.7558,-1.2932 1.1538,-0.6093 2.0988,-1.3778 2.8433,-2.3157 0.7432,-0.9346 1.1134,-2.0887 1.1134,-3.4577 0,-1.1645 -0.2649,-2.1378 -0.7821,-2.9222 -0.5264,-0.7868 -1.2292,-1.4451 -2.1034,-1.9782 -0.8807,-0.5309 -1.8842,-0.9714 -3.0126,-1.3284 -1.1284,-0.352 -2.2672,-0.6566 -3.4223,-0.9073 l -6.6803,-1.3712 c -1.709,-0.4051 -3.2675,-0.8739 -4.7058,-1.4041 -1.4287,-0.5345 -2.6813,-1.1902 -3.7502,-1.9746 -1.0699,-0.7868 -1.9129,-1.7481 -2.5172,-2.8901 -0.6044,-1.1411 -0.9048,-2.5448 -0.9048,-4.2145 0,-1.9776 0.4792,-3.6723 1.4451,-5.0887 0.9609,-1.4197 2.2109,-2.5621 3.7512,-3.4187 1.5367,-0.8651 3.2571,-1.4944 5.1518,-1.9018 1.9001,-0.4037 3.7811,-0.6056 5.654,-0.6056 2.1433,0 4.1355,0.2535 5.9785,0.7561 1.8393,0.5124 3.4635,1.2923 4.8627,2.3576 1.4093,1.0653 2.5231,2.38 3.3465,3.9525 0.8222,1.5689 1.2877,3.4171 1.4002,5.5425 h -5.194 c -0.054,-1.4645 -0.3879,-2.7457 -0.9932,-3.8354 z"
       style="fill:#565757;fill-rule:evenodd"
       id="path3715"
       inkscape:connector-curvature="0" />
    <path
       d="m 161.1837,492.2509 c 1.4291,-0.0985 2.762,-0.3924 4.0006,-0.8729 1.2354,-0.4805 2.251,-1.1768 3.0507,-2.0884 0.7975,-0.9109 1.197,-2.1251 1.197,-3.6456 0,-2.2789 -0.8251,-4.0279 -2.4759,-5.2438 -1.6508,-1.2155 -3.5458,-1.8247 -5.6917,-1.8247 -2.9704,0 -5.2103,0.9005 -6.7223,2.6999 -1.5127,1.7948 -2.2422,4.062 -2.1876,6.7961 H 141.221 c 0.1086,-2.7341 0.6476,-5.2249 1.6083,-7.4782 0.961,-2.2561 2.3075,-4.192 4.0412,-5.8136 1.7321,-1.6206 3.8101,-2.8719 6.2314,-3.7617 2.4171,-0.8855 5.1115,-1.3293 8.0818,-1.3293 2.3072,0 4.6164,0.3131 6.9281,0.9542 2.3085,0.6284 4.3836,1.5829 6.2294,2.8452 1.8378,1.2649 3.3368,2.8098 4.4912,4.6336 1.1547,1.8224 1.7344,3.9264 1.7344,6.3077 0,2.5803 -0.6759,4.8602 -2.0234,6.8342 -1.3485,1.9759 -3.3667,3.3185 -6.0591,4.0285 v 0.1502 c 3.1875,0.6616 5.6917,2.0783 7.5028,4.2552 1.8153,2.1729 2.7256,4.7844 2.7256,7.8236 0,2.7861 -0.5965,5.2675 -1.7756,7.444 -1.184,2.1762 -2.7611,4.0062 -4.7435,5.4707 -1.9814,1.4717 -4.259,2.5829 -6.8468,3.3397 -2.5858,0.7617 -5.2782,1.1424 -8.0824,1.1424 -3.2435,0 -6.2015,-0.4324 -8.8673,-1.2939 -2.6677,-0.8602 -4.9356,-2.1121 -6.8013,-3.7591 -1.8748,-1.6446 -3.3153,-3.6586 -4.3341,-6.0405 -1.015,-2.3777 -1.4987,-5.1128 -1.4428,-8.1989 h 11.1348 c 0.0562,1.4152 0.3049,2.7682 0.7415,4.0634 0.4412,1.289 1.0751,2.4047 1.8996,3.3429 0.8221,0.9359 1.8556,1.6814 3.0932,2.2386 1.2344,0.5572 2.7084,0.8352 4.4106,0.8352 2.641,0 4.8686,-0.7471 6.6816,-2.2409 1.8153,-1.4925 2.7217,-3.5338 2.7217,-6.115 0,-2.027 -0.4256,-3.5715 -1.2757,-4.6368 -0.8547,-1.0624 -1.9418,-1.8342 -3.259,-2.317 -1.3183,-0.4769 -2.763,-0.7545 -4.3309,-0.8325 -1.5657,-0.0745 -3.0657,-0.1161 -4.4935,-0.1161 v -7.5964 c 1.2624,0.1053 2.6108,0.1053 4.0409,0 z"
       style="fill:#76a04e;fill-rule:evenodd"
       id="path3717"
       inkscape:connector-curvature="0" />
    <path
       d="m 139.3082,494.9423 h -25.551 v 8.5545 h 11.0743 c -2.2669,6.2421 -7.4089,10.6026 -13.3994,10.6026 -8.0841,0 -14.6347,-7.928 -14.6347,-17.7088 0,-9.7882 6.5506,-17.7163 14.6347,-17.7163 5.5887,0 10.4449,3.7961 12.9065,9.3721 h 13.8162 c -3.5013,-11.6546 -14.1377,-20.1317 -26.7227,-20.1317 -15.4377,0 -27.9502,12.7463 -27.9502,28.4759 0,15.7179 12.5125,28.4723 27.9502,28.4723 15.4354,0 27.947,-12.7544 27.947,-28.4723 0,-0.4883 -0.0485,-0.9675 -0.0709,-1.4483 z"
       style="fill:#76a04e;fill-rule:evenodd"
       id="path3719"
       inkscape:connector-curvature="0" />
    <path
       d="m 312.266,321.3061 38.6263,-78.0358 -13.3094,8.8367 -38.3314,76.5445 72.7796,-40.7914 14.0363,-7.9144 z"
       style="fill:#565757;fill-rule:evenodd"
       id="path3721"
       inkscape:connector-curvature="0" />
    <path
       d="m 247.4755,290.5288 c 0.3716,-0.2659 0.7432,-0.5204 1.1239,-0.774 0.3738,-0.2546 0.7548,-0.5 1.1388,-0.7432 0.3842,-0.2409 0.7721,-0.4792 1.1619,-0.711 0.3888,-0.2318 0.7844,-0.4609 1.1814,-0.6814 l 3.0448,-2.1592 0.2844,0.4574 c 1.8934,-0.8739 3.8579,-1.6401 5.8832,-2.2858 2.0199,-0.6388 4.092,-1.1651 6.2217,-1.563 2.1228,-0.3969 4.2987,-0.6697 6.5223,-0.8085 2.2146,-0.1375 4.4762,-0.1456 6.7769,-0.0137 l 12.4765,-8.5018 c -2.3453,-0.1421 -4.6482,-0.1479 -6.9041,-0.015 -2.2626,0.1298 -4.4762,0.3993 -6.6367,0.7939 -2.1655,0.3979 -4.2812,0.9243 -6.3332,1.5676 -2.0585,0.6515 -4.0552,1.4233 -5.9843,2.3108 l -21.0391,-34.0867 -11.5005,9.3685 20.0768,32.5191 c -2.4967,1.7754 -4.9957,3.5497 -7.4947,5.326 z"
       style="fill:#565757;fill-rule:evenodd"
       id="path3723"
       inkscape:connector-curvature="0" />
    <path
       d="m 344.8771,346.5528 c 0.3761,6.012 -0.1161,11.7762 -1.3706,17.1744 -1.2627,5.4235 -3.2939,10.4868 -5.9902,15.0547 -2.7168,4.5988 -6.1127,8.7024 -10.0772,12.1832 -3.9945,3.4967 -8.5718,6.3637 -13.6215,8.4557 4.5393,-1.8787 9.0685,-3.7607 13.6052,-5.6414 5.1313,-2.1264 9.7726,-5.0438 13.8243,-8.613 4.0188,-3.5461 7.4534,-7.7378 10.1923,-12.4283 2.7227,-4.6677 4.7639,-9.8367 6.0185,-15.3831 1.249,-5.5152 1.7226,-11.4098 1.312,-17.5583 z"
       style="fill:#565757;fill-rule:evenodd"
       id="path3725"
       inkscape:connector-curvature="0" />
    <path
       d="m 323.2587,436.5952 c -2.3878,0.3771 -4.8202,0.6603 -7.2906,0.8475 -2.4772,0.1853 -4.9944,0.2705 -7.5509,0.2543 -13.7037,-0.0917 -27.169,-3.133 -39.7615,-8.6049 -12.7209,-5.5312 -24.4912,-13.5051 -34.6696,-23.3544 -10.2183,-9.8894 -18.7728,-21.6044 -25.0276,-34.5217 -5.6609,-11.6955 -9.3848,-24.3066 -10.7795,-37.3383 l 27.8677,1.6366 11.6474,-7.4899 -40.0941,-2.5266 c -0.1199,-4.3972 0.0345,-8.6988 0.4532,-12.886 0.4217,-4.1781 1.0972,-8.2392 2.0227,-12.1741 0.9188,-3.9187 2.0793,-7.709 3.4681,-11.3562 0.2523,-0.6661 0.5481,-1.2994 0.819,-1.9554 l 29.324,18.3122 11.6852,-8.1693 -35.0399,-22.0631 c 1.2064,-1.9854 2.4863,-3.905 3.8397,-5.7665 1.3511,-1.8521 2.7721,-3.6401 4.2594,-5.3628 1.4886,-1.7145 3.038,-3.3601 4.6563,-4.9381 1.6124,-1.5738 3.288,-3.0715 5.0184,-4.4993 l -11.1897,9.2092 c -1.7054,1.4051 -3.3546,2.8787 -4.9394,4.4245 -1.5907,1.5485 -3.1219,3.1677 -4.5819,4.8501 -1.4655,1.6882 -2.866,3.4408 -4.1963,5.262 -1.3316,1.8221 -2.5943,3.7067 -3.7799,5.654 l -1.9681,3.3488 c -1.7844,3.2626 -3.3712,6.6793 -4.734,10.2346 -1.3699,3.5656 -2.5234,7.2733 -3.4398,11.1071 -0.9145,3.8455 -1.5946,7.8136 -2.0159,11.8919 -0.4256,4.0897 -0.5956,8.2905 -0.4906,12.5834 l 0.1801,4.2467 c 0.9301,14.111 4.7165,27.7652 10.7847,40.3213 6.0795,12.5785 14.4146,23.9818 24.3891,33.5958 9.9316,9.575 21.4312,17.322 33.878,22.6792 12.3288,5.3078 25.5198,8.2414 38.9621,8.2951 2.513,0.0117 4.9821,-0.0781 7.4167,-0.2673 2.4268,-0.1856 4.8101,-0.4687 7.1589,-0.8452 2.3348,-0.3758 4.6332,-0.8394 6.8822,-1.393 2.2431,-0.5507 4.4395,-1.1895 6.5922,-1.9132 4.6505,-1.5621 9.2987,-3.1193 13.9527,-4.6814 -2.1882,0.7338 -4.4212,1.382 -6.708,1.9415 -2.287,0.5611 -4.6218,1.0322 -7.0005,1.4109 z"
       style="fill:#565757;fill-rule:evenodd"
       id="path3727"
       inkscape:connector-curvature="0" />
    <path
       d="m 237.9418,332.2916 c 0.8027,8.7093 3.2984,17.1181 7.1391,24.8502 3.8432,7.7391 9.0213,14.7761 15.1705,20.7377 6.1312,5.9475 13.2072,10.81 20.8625,14.239 7.6095,3.4077 15.7693,5.3927 24.1093,5.6277 8.2632,0.2282 15.9217,-1.2763 22.7194,-4.1859 6.7272,-2.8774 12.6062,-7.1267 17.3759,-12.4273 4.7272,-5.2503 8.3686,-11.5363 10.6888,-18.5482 2.3039,-6.9612 3.3052,-14.6523 2.7626,-22.7881 l 33.9092,2.0621 c 1.1538,13.0271 -0.1434,25.4064 -3.5276,36.6777 -3.4281,11.4055 -8.9995,21.7133 -16.3509,30.4134 -7.4615,8.8227 -16.7683,16.0089 -27.5292,20.9884 -10.927,5.0581 -23.3602,7.8471 -36.8542,7.7587 -13.7037,-0.0917 -27.169,-3.133 -39.7615,-8.6049 -12.7209,-5.5312 -24.4912,-13.5051 -34.6696,-23.3544 -10.2183,-9.8894 -18.7728,-21.6044 -25.0276,-34.5217 -6.246,-12.8929 -10.1611,-26.9041 -11.1582,-41.3636 z"
       style="fill:#76a04e;fill-rule:evenodd"
       id="path3729"
       inkscape:connector-curvature="0" />
    <path
       d="m 290.4103,236.4112 2.881,36.3334 c -2.3453,-0.1421 -4.6482,-0.1479 -6.9041,-0.015 -2.2626,0.1298 -4.4762,0.3993 -6.6367,0.7939 -2.1655,0.3979 -4.2812,0.9243 -6.3332,1.5676 -2.0585,0.6515 -4.0552,1.4233 -5.9843,2.3108 l -21.0391,-34.0867 c 3.2962,-1.4749 6.7116,-2.7386 10.2337,-3.7802 3.5002,-1.0367 7.1068,-1.8589 10.8022,-2.445 3.6777,-0.5839 7.4465,-0.9382 11.2872,-1.0575 3.826,-0.1145 7.7275,0.007 11.6933,0.3787 z"
       style="fill:#abc37d;fill-rule:evenodd"
       id="path3731"
       inkscape:connector-curvature="0" />
    <path
       d="m 242.973,244.954 21.0745,34.1728 c -1.9083,1.0631 -3.7399,2.2458 -5.4876,3.538 -1.7513,1.2984 -3.4154,2.7067 -4.9843,4.2262 -1.5735,1.5221 -3.0507,3.1505 -4.4164,4.8787 -1.3752,1.7367 -2.6414,3.5715 -3.787,5.4993 l -35.0399,-22.0631 c 2.0023,-3.2952 4.21,-6.4203 6.614,-9.3617 2.3924,-2.9236 4.9717,-5.6658 7.7262,-8.2093 2.7389,-2.5279 5.6518,-4.864 8.7138,-6.9869 3.0484,-2.1102 6.2493,-4.0126 9.5867,-5.694 z"
       style="fill:#abc37d;fill-rule:evenodd"
       id="path3733"
       inkscape:connector-curvature="0" />
    <path
       d="m 208.3392,278.6281 35.1556,22.0895 c -0.9828,1.9808 -1.8544,4.0415 -2.6021,6.1794 -0.7513,2.141 -1.3751,4.3556 -1.8728,6.6413 -0.4968,2.288 -0.8602,4.6413 -1.0862,7.0591 -0.2223,2.4187 -0.3062,4.8946 -0.2396,7.427 L 197.6,325.4978 c -0.1199,-4.3972 0.0345,-8.6988 0.4532,-12.886 0.4217,-4.1781 1.0972,-8.2392 2.0227,-12.1741 0.9188,-3.9187 2.0793,-7.709 3.4681,-11.3562 1.3807,-3.6342 2.9831,-7.1241 4.7952,-10.4534 z"
       style="fill:#abc37d;fill-rule:evenodd"
       id="path3735"
       inkscape:connector-curvature="0" />
    <path
       d="m 350.8923,243.2703 35.1751,36.6754 -73.8014,41.3604 z"
       style="fill:#76a04e;fill-rule:evenodd"
       id="path3737"
       inkscape:connector-curvature="0" />
  </g>
</svg>
