<?xml version="1.0" encoding="UTF-8" standalone="no"?>
<!-- Created with Inkscape (http://www.inkscape.org/) -->

<svg
   xmlns:dc="http://purl.org/dc/elements/1.1/"
   xmlns:cc="http://creativecommons.org/ns#"
   xmlns:rdf="http://www.w3.org/1999/02/22-rdf-syntax-ns#"
   xmlns:svg="http://www.w3.org/2000/svg"
   xmlns="http://www.w3.org/2000/svg"
   xmlns:sodipodi="http://sodipodi.sourceforge.net/DTD/sodipodi-0.dtd"
   xmlns:inkscape="http://www.inkscape.org/namespaces/inkscape"
   width="53.531803mm"
   height="17.176926mm"
   viewBox="0 0 53.531803 17.176926"
   version="1.1"
   id="svg5088"
   inkscape:version="0.92.1 unknown"
   sodipodi:docname="redhat.svg">
  <defs
     id="defs5082">
    <clipPath
       clipPathUnits="userSpaceOnUse"
       id="clipPath4562">
      <path
         d="m 337.791,686.147 h 158.644 v 56.542 H 337.791 Z"
         id="path4560"
         inkscape:connector-curvature="0" />
    </clipPath>
  </defs>
  <sodipodi:namedview
     id="base"
     pagecolor="#ffffff"
     bordercolor="#666666"
     borderopacity="1.0"
     inkscape:pageopacity="0.0"
     inkscape:pageshadow="2"
     inkscape:zoom="1.4"
     inkscape:cx="243.78964"
     inkscape:cy="-11.757265"
     inkscape:document-units="mm"
     inkscape:current-layer="layer1"
     showgrid="false"
     fit-margin-top="0"
     fit-margin-left="0"
     fit-margin-right="0"
     fit-margin-bottom="0"
     inkscape:window-width="1366"
     inkscape:window-height="708"
     inkscape:window-x="0"
     inkscape:window-y="31"
     inkscape:window-maximized="1" />
  <metadata
     id="metadata5085">
    <rdf:RDF>
      <cc:Work
         rdf:about="">
        <dc:format>image/svg+xml</dc:format>
        <dc:type
           rdf:resource="http://purl.org/dc/dcmitype/StillImage" />
        <dc:title></dc:title>
      </cc:Work>
    </rdf:RDF>
  </metadata>
  <g
     inkscape:label="Layer 1"
     inkscape:groupmode="layer"
     id="layer1"
     transform="translate(143.18257,-88.840106)">
    <g
       transform="matrix(0.35277777,0,0,-0.35277777,-263.4903,349.2929)"
       id="g4556">
      <g
         id="g4558"
         clip-path="url(#clipPath4562)">
        <g
           id="g4564"
           transform="translate(385.8408,700.7139)">
          <path
             d="m 0,0 c -0.939,0.215 -1.935,0.351 -2.942,0.351 -1.723,0 -3.291,-0.298 -4.447,-0.78 -0.128,-0.063 -0.218,-0.197 -0.218,-0.348 0,-0.055 0.013,-0.111 0.034,-0.158 0.137,-0.397 -0.087,-0.825 -1.207,-1.072 -1.659,-0.364 -2.706,-2.075 -3.305,-2.643 -0.705,-0.668 -2.693,-1.078 -2.394,-0.68 0.235,0.311 1.129,1.282 1.673,2.331 0.487,0.938 0.921,1.205 1.518,2.1 0.175,0.262 0.853,1.185 1.051,1.915 0.221,0.711 0.147,1.606 0.232,1.973 0.122,0.532 0.623,1.682 0.661,2.332 0.022,0.368 -1.536,-0.524 -2.275,-0.524 -0.738,0 -1.459,0.442 -2.12,0.474 -0.817,0.038 -1.342,-0.631 -2.082,-0.513 -0.422,0.067 -0.778,0.44 -1.515,0.467 -1.051,0.038 -2.335,-0.585 -4.747,-0.507 -2.372,0.078 -4.563,2.997 -4.862,3.461 -0.351,0.545 -0.778,0.545 -1.245,0.116 -0.467,-0.427 -1.042,-0.091 -1.206,0.195 -0.311,0.545 -1.143,2.134 -2.431,2.468 -1.783,0.462 -2.684,-0.985 -2.568,-2.138 0.12,-1.169 0.875,-1.497 1.226,-2.118 0.349,-0.622 0.529,-1.022 1.188,-1.297 0.467,-0.196 0.641,-0.483 0.502,-0.866 -0.122,-0.334 -0.608,-0.41 -0.928,-0.426 -0.678,-0.032 -1.155,0.152 -1.501,0.373 -0.404,0.258 -0.732,0.615 -1.085,1.221 -0.407,0.669 -1.049,0.96 -1.797,0.96 -0.356,0 -0.69,-0.093 -0.986,-0.245 -1.172,-0.611 -2.567,-0.971 -4.069,-0.971 l -1.694,-0.002 c 3.248,-9.628 12.358,-16.562 23.089,-16.562 8.571,0 16.108,4.424 20.45,11.113"
             style="fill:#ffffff;fill-opacity:1;fill-rule:nonzero;stroke:none"
             id="path4566"
             inkscape:connector-curvature="0" />
        </g>
        <g
           id="g4568"
           transform="translate(389.5039,702.1743)">
          <path
             d="M 0,0 V 0.39 H 0.259 C 0.391,0.39 0.533,0.36 0.533,0.205 0.533,0.013 0.39,0 0.228,0 Z m 0,-0.162 h 0.219 l 0.332,-0.543 h 0.214 l -0.36,0.554 c 0.187,0.022 0.328,0.12 0.328,0.343 0,0.251 -0.147,0.359 -0.444,0.359 H -0.19 V -0.705 H 0 Z"
             style="fill:#100f0d;fill-opacity:1;fill-rule:nonzero;stroke:none"
             id="path4570"
             inkscape:connector-curvature="0" />
        </g>
        <g
           id="g4572"
           transform="translate(389.7295,703.1084)">
          <path
             d="m 0,0 c -0.561,0 -1.014,-0.454 -1.014,-1.015 0,-0.556 0.453,-1.008 1.014,-1.008 0.558,0 1.012,0.452 1.012,1.008 C 1.012,-0.454 0.558,0 0,0 m 1.23,-1.013 c 0,-0.677 -0.551,-1.23 -1.23,-1.23 -0.68,0 -1.232,0.553 -1.232,1.23 0,0.679 0.552,1.231 1.232,1.231 0.679,0 1.23,-0.552 1.23,-1.231"
             style="fill:#100f0d;fill-opacity:1;fill-rule:nonzero;stroke:none"
             id="path4574"
             inkscape:connector-curvature="0" />
        </g>
        <g
           id="g4576"
           transform="translate(385.8408,700.7124)">
          <path
             d="m 0,0 c -0.939,0.215 -1.935,0.351 -2.942,0.351 -1.723,0 -3.291,-0.299 -4.447,-0.779 -0.128,-0.063 -0.218,-0.197 -0.218,-0.348 0,-0.055 0.013,-0.112 0.034,-0.158 0.137,-0.397 -0.087,-0.826 -1.207,-1.072 -1.659,-0.364 -2.706,-2.075 -3.305,-2.643 -0.705,-0.668 -2.693,-1.079 -2.394,-0.681 0.235,0.311 1.129,1.283 1.673,2.333 0.487,0.936 0.921,1.205 1.518,2.099 0.175,0.263 0.853,1.185 1.051,1.914 0.221,0.713 0.147,1.606 0.232,1.974 0.122,0.531 0.623,1.682 0.661,2.332 0.022,0.367 -1.536,-0.524 -2.275,-0.524 -0.738,0 -1.459,0.441 -2.12,0.473 -0.817,0.039 -1.342,-0.629 -2.082,-0.513 -0.422,0.068 -0.778,0.439 -1.515,0.467 -1.051,0.039 -2.335,-0.583 -4.747,-0.506 -2.372,0.077 -4.563,2.995 -4.862,3.46 -0.351,0.545 -0.778,0.545 -1.245,0.116 -0.467,-0.425 -1.042,-0.091 -1.206,0.196 -0.311,0.545 -1.143,2.134 -2.431,2.467 -1.783,0.463 -2.684,-0.985 -2.568,-2.137 0.12,-1.168 0.875,-1.496 1.226,-2.117 0.349,-0.622 0.529,-1.025 1.188,-1.3 0.467,-0.193 0.641,-0.482 0.502,-0.865 -0.122,-0.333 -0.608,-0.41 -0.928,-0.425 -0.678,-0.032 -1.155,0.152 -1.501,0.373 -0.404,0.257 -0.732,0.614 -1.085,1.221 -0.407,0.669 -1.049,0.96 -1.797,0.96 -0.356,0 -0.69,-0.095 -0.986,-0.246 -1.172,-0.61 -2.567,-0.971 -4.069,-0.971 h -1.694 c -0.825,2.443 -1.272,5.06 -1.272,7.782 0,13.446 10.907,24.346 24.361,24.346 13.453,0 24.358,-10.9 24.358,-24.346 C 3.908,8.354 2.473,3.811 0,0"
             style="fill:#100f0d;fill-opacity:1;fill-rule:nonzero;stroke:none"
             id="path4578"
             inkscape:connector-curvature="0" />
        </g>
        <g
           id="g4580"
           transform="translate(402.167,712.4102)">
          <path
             d="M 0,0 C 0,2.232 -0.046,3.875 -0.137,5.359 H 3.517 L 3.674,2.192 h 0.119 c 0.821,2.348 2.768,3.545 4.569,3.545 0.412,0 0.652,-0.016 0.99,-0.092 V 1.673 C 8.957,1.75 8.588,1.792 8.081,1.792 6.069,1.792 4.674,0.515 4.297,-1.397 4.227,-1.769 4.188,-2.215 4.188,-2.67 v -8.649 h -4.222 z"
             style="fill:#100f0d;fill-opacity:1;fill-rule:nonzero;stroke:none"
             id="path4582"
             inkscape:connector-curvature="0" />
        </g>
        <g
           id="g4584"
           transform="translate(423.9517,711.2334)">
          <path
             d="M 0,0 C 0.02,1.545 -0.654,4.064 -3.479,4.064 -6.078,4.064 -7.158,1.709 -7.347,0 Z m -7.339,-2.938 c 0.111,-3.022 2.452,-4.344 5.155,-4.344 1.94,0 3.329,0.303 4.605,0.771 l 0.624,-2.901 c -1.427,-0.606 -3.41,-1.057 -5.831,-1.057 -5.42,0 -8.594,3.344 -8.594,8.454 0,4.604 2.794,8.96 8.162,8.96 5.426,0 7.192,-4.461 7.192,-8.112 0,-0.784 -0.069,-1.413 -0.15,-1.801 z"
             style="fill:#100f0d;fill-opacity:1;fill-rule:nonzero;stroke:none"
             id="path4586"
             inkscape:connector-curvature="0" />
        </g>
        <g
           id="g4588"
           transform="translate(446.1064,724.1929)">
          <path
             d="m 0,0 -4.218,1.189 v -9.408 h -0.069 c -0.746,1.233 -2.392,2.173 -4.677,2.173 -4.013,0 -7.506,-3.319 -7.482,-8.907 0,-5.127 3.157,-8.524 7.142,-8.524 2.409,0 4.422,1.147 5.419,3.016 h 0.075 l 0.189,-2.641 H 0.14 C 0.062,-21.968 0,-20.131 0,-18.424 Z m -4.218,-15.87 c 0,-0.442 -0.031,-0.854 -0.127,-1.23 -0.425,-1.825 -1.919,-3.002 -3.644,-3.002 -2.657,0 -4.177,2.238 -4.177,5.304 0,3.094 1.506,5.489 4.225,5.489 1.898,0 3.255,-1.337 3.629,-2.962 0.072,-0.342 0.094,-0.762 0.094,-1.099 z"
             style="fill:#100f0d;fill-opacity:1;fill-rule:nonzero;stroke:none"
             id="path4590"
             inkscape:connector-curvature="0" />
        </g>
        <g
           id="g4592"
           transform="translate(457.2656,718.1665)">
          <path
             d="M 0,0 C -1.271,0 -2.41,-0.366 -3.367,-0.957 -4.36,-1.538 -5.168,-2.436 -5.648,-3.364 h -0.067 v 7.805 l -1.652,0.488 v -22.005 h 1.652 v 10.208 c 0,0.679 0.051,1.149 0.224,1.645 0.714,2.076 2.672,3.78 5.038,3.78 3.42,0 4.603,-2.74 4.603,-5.746 v -9.887 H 5.801 V -7.007 C 5.801,-0.79 1.583,0 0,0"
             style="fill:#100f0d;fill-opacity:1;fill-rule:nonzero;stroke:none"
             id="path4594"
             inkscape:connector-curvature="0" />
        </g>
        <g
           id="g4596"
           transform="translate(476.2402,710.0127)">
          <path
             d="m 0,0 c -3.637,0.104 -8.439,-0.446 -8.439,-4.454 0,-2.399 1.584,-3.477 3.324,-3.477 2.783,0 4.366,1.723 4.942,3.347 0.12,0.356 0.173,0.714 0.173,1 z m 1.651,-4.957 c 0,-1.32 0.054,-2.687 0.244,-3.965 H 0.373 L 0.13,-6.53 H 0.052 c -0.809,-1.286 -2.67,-2.772 -5.325,-2.772 -3.361,0 -4.925,2.363 -4.925,4.589 0,3.852 3.404,6.173 10.198,6.102 v 0.445 c 0,1.652 -0.322,4.946 -4.272,4.919 -1.462,0 -2.985,-0.39 -4.193,-1.243 l -0.526,1.201 c 1.526,1.034 3.389,1.443 4.9,1.443 4.82,0 5.742,-3.617 5.742,-6.599 z"
             style="fill:#100f0d;fill-opacity:1;fill-rule:nonzero;stroke:none"
             id="path4598"
             inkscape:connector-curvature="0" />
        </g>
        <g
           id="g4600"
           transform="translate(484.4697,721.4629)">
          <path
             d="M 0,0 V -3.679 H 4.761 V -5.017 H 0 v -10.851 c 0,-2.122 0.659,-3.452 2.453,-3.452 0.861,0 1.47,0.113 1.898,0.261 l 0.2,-1.277 c -0.539,-0.227 -1.297,-0.401 -2.305,-0.401 -1.219,0 -2.23,0.383 -2.882,1.183 -0.757,0.877 -1.015,2.278 -1.015,3.981 V -5.017 H -4.47 v 1.338 h 2.819 v 3.07 z"
             style="fill:#100f0d;fill-opacity:1;fill-rule:nonzero;stroke:none"
             id="path4602"
             inkscape:connector-curvature="0" />
        </g>
        <g
           id="g4604"
           transform="translate(491.3174,702.1411)">
          <path
             d="M 0,0 V 0.39 H 0.259 C 0.39,0.39 0.533,0.36 0.533,0.206 0.533,0.012 0.39,0 0.228,0 Z m 0,-0.162 h 0.22 l 0.331,-0.543 h 0.214 l -0.359,0.554 c 0.187,0.023 0.327,0.12 0.327,0.344 0,0.25 -0.148,0.358 -0.444,0.358 H -0.19 V -0.705 H 0 Z"
             style="fill:#100f0d;fill-opacity:1;fill-rule:nonzero;stroke:none"
             id="path4606"
             inkscape:connector-curvature="0" />
        </g>
        <g
           id="g4608"
           transform="translate(491.5415,703.0752)">
          <path
             d="m 0,0 c -0.56,0 -1.013,-0.453 -1.013,-1.014 0,-0.557 0.453,-1.008 1.013,-1.008 0.56,0 1.013,0.451 1.013,1.008 C 1.013,-0.453 0.56,0 0,0 m 1.232,-1.012 c 0,-0.679 -0.552,-1.23 -1.232,-1.23 -0.678,0 -1.23,0.551 -1.23,1.23 0,0.679 0.552,1.23 1.23,1.23 0.68,0 1.232,-0.551 1.232,-1.23"
             style="fill:#100f0d;fill-opacity:1;fill-rule:nonzero;stroke:none"
             id="path4610"
             inkscape:connector-curvature="0" />
        </g>
        <g
           id="g4612"
           transform="translate(370.7554,702.9453)">
          <path
             d="m 0,0 c 0.125,-0.122 0.341,-0.535 0.078,-1.055 -0.149,-0.277 -0.308,-0.47 -0.594,-0.697 -0.342,-0.275 -1.012,-0.592 -1.931,-0.01 -0.493,0.313 -0.523,0.418 -1.205,0.33 -0.488,-0.064 -0.681,0.427 -0.506,0.837 0.175,0.407 0.895,0.737 1.789,0.213 0.403,-0.237 1.031,-0.736 1.58,-0.294 0.228,0.183 0.364,0.304 0.68,0.67 0.015,0.015 0.035,0.024 0.057,0.024 C -0.032,0.018 -0.014,0.01 0,0"
             style="fill:#100f0d;fill-opacity:1;fill-rule:nonzero;stroke:none"
             id="path4614"
             inkscape:connector-curvature="0" />
        </g>
        <g
           id="g4616"
           transform="translate(379.1367,720.4233)">
          <path
             d="m 0,0 c -0.241,-0.809 -0.583,-1.843 -2.106,-2.625 -0.223,-0.114 -0.307,0.073 -0.205,0.249 0.576,0.977 0.679,1.222 0.846,1.608 0.233,0.564 0.356,1.367 -0.109,3.041 -0.916,3.295 -2.827,7.699 -4.217,9.128 -1.34,1.379 -3.77,1.766 -5.965,1.203 -0.809,-0.206 -2.391,-1.028 -5.324,-0.368 -5.078,1.142 -5.83,-1.398 -6.121,-2.504 -0.292,-1.108 -0.991,-4.254 -0.991,-4.254 -0.234,-1.282 -0.539,-3.509 7.345,-5.01 3.673,-0.699 3.859,-1.649 4.021,-2.33 0.293,-1.223 0.759,-1.924 1.284,-2.273 0.524,-0.35 0,-0.64 -0.583,-0.698 -1.564,-0.164 -7.345,1.495 -10.765,3.436 -2.799,1.709 -2.845,3.248 -2.205,4.554 -4.226,0.456 -7.399,-0.397 -7.974,-2.396 -0.987,-3.432 7.549,-9.295 17.271,-12.237 10.201,-3.087 20.694,-0.931 21.861,5.477 C 6.592,-3.087 4.138,-0.933 0,0 m -12.686,10.922 c -0.005,0 -0.008,-0.001 -0.013,-0.001 -0.043,0 -0.078,0.034 -0.078,0.074 0,0.029 0.017,0.055 0.044,0.067 0.545,0.287 1.358,0.517 2.291,0.612 0.279,0.028 0.552,0.043 0.815,0.045 0.046,0 0.092,0 0.139,0 1.562,-0.036 2.811,-0.656 2.793,-1.385 -0.018,-0.73 -1.299,-1.294 -2.86,-1.259 -0.506,0.012 -0.981,0.085 -1.388,0.203 -0.049,0.012 -0.084,0.054 -0.084,0.102 0,0.049 0.035,0.09 0.085,0.102 0.974,0.226 1.631,0.594 1.585,0.942 -0.061,0.461 -1.335,0.712 -2.846,0.56 -0.166,-0.017 -0.327,-0.037 -0.483,-0.062 m -2.956,-4.647 c -2.814,-0.203 -3.107,-0.506 -3.633,-1.067 -0.744,-0.792 -1.722,1.025 -1.722,1.025 -0.588,0.124 -1.3,1.071 -0.916,1.955 0.379,0.874 1.079,0.612 1.297,0.34 0.266,-0.332 0.835,-0.874 1.574,-0.855 0.738,0.02 1.591,0.175 2.779,0.175 1.204,0 2.013,-0.449 2.059,-0.836 0.039,-0.329 -0.098,-0.639 -1.438,-0.737"
             style="fill:#e31d32;fill-opacity:1;fill-rule:nonzero;stroke:none"
             id="path4618"
             inkscape:connector-curvature="0" />
        </g>
      </g>
    </g>
  </g>
</svg>
