<?xml version="1.0" encoding="UTF-8" standalone="no"?>
<!-- Created with Inkscape (http://www.inkscape.org/) -->

<svg
   xmlns:dc="http://purl.org/dc/elements/1.1/"
   xmlns:cc="http://creativecommons.org/ns#"
   xmlns:rdf="http://www.w3.org/1999/02/22-rdf-syntax-ns#"
   xmlns:svg="http://www.w3.org/2000/svg"
   xmlns="http://www.w3.org/2000/svg"
   xmlns:sodipodi="http://sodipodi.sourceforge.net/DTD/sodipodi-0.dtd"
   xmlns:inkscape="http://www.inkscape.org/namespaces/inkscape"
   width="75.080917mm"
   height="16.53396mm"
   viewBox="0 0 75.080917 16.533961"
   version="1.1"
   id="svg4672"
   inkscape:version="0.92.1 unknown"
   sodipodi:docname="solutis.svg">
  <defs
     id="defs4666" />
  <sodipodi:namedview
     id="base"
     pagecolor="#ffffff"
     bordercolor="#666666"
     borderopacity="1.0"
     inkscape:pageopacity="0.0"
     inkscape:pageshadow="2"
     inkscape:zoom="1.979899"
     inkscape:cx="134.60743"
     inkscape:cy="-38.478983"
     inkscape:document-units="mm"
     inkscape:current-layer="layer1"
     showgrid="false"
     fit-margin-top="0"
     fit-margin-left="0"
     fit-margin-right="0"
     fit-margin-bottom="0"
     inkscape:window-width="1366"
     inkscape:window-height="708"
     inkscape:window-x="0"
     inkscape:window-y="31"
     inkscape:window-maximized="1" />
  <metadata
     id="metadata4669">
    <rdf:RDF>
      <cc:Work
         rdf:about="">
        <dc:format>image/svg+xml</dc:format>
        <dc:type
           rdf:resource="http://purl.org/dc/dcmitype/StillImage" />
        <dc:title></dc:title>
      </cc:Work>
    </rdf:RDF>
  </metadata>
  <g
     inkscape:label="Layer 1"
     inkscape:groupmode="layer"
     id="layer1"
     transform="translate(215.73689,-109.32826)">
    <g
       transform="matrix(0.35277777,0,0,-0.35277777,-148.64976,117.28479)"
       id="g3811">
      <path
         inkscape:connector-curvature="0"
         id="path3813"
         style="fill:#68676c;fill-opacity:1;fill-rule:nonzero;stroke:none"
         d="m 0,0 c -2.915,0.881 -5.668,1.714 -5.945,3.727 0.042,1.158 0.368,1.936 1.006,2.383 0.816,0.604 2.587,1.025 4.308,1.025 1.728,0 3.374,-0.626 3.85,-1.058 C 3.785,5.56 4.147,4.7 4.359,3.373 4.405,3.077 4.575,2.812 4.824,2.644 5.07,2.479 5.377,2.423 5.673,2.49 L 6.111,2.593 C 6.655,2.722 7.015,3.256 6.93,3.808 6.65,5.64 5.982,7.052 4.944,8.005 3.823,9.038 1.583,9.732 -0.631,9.732 c -2.34,0 -4.524,-0.561 -5.837,-1.497 -1.828,-1.27 -2.08,-3.203 -2.111,-4.557 0,-3.598 4.059,-4.906 7.642,-6.06 2.66,-0.857 5.41,-1.743 5.411,-3.175 C 4.439,-6.94 4.104,-7.44 3.523,-7.848 2.762,-8.43 1.17,-8.792 -0.631,-8.792 c -1.847,0 -3.296,0.279 -4.079,0.785 -0.7,0.457 -1.137,1.176 -1.512,2.482 -0.163,0.559 -0.752,0.895 -1.316,0.745 l -0.507,-0.135 c -0.285,-0.075 -0.529,-0.267 -0.67,-0.524 -0.141,-0.258 -0.171,-0.567 -0.082,-0.849 0.533,-1.669 1.187,-2.96 2.625,-3.821 1.204,-0.802 3.056,-1.208 5.506,-1.208 2.556,0 4.475,0.458 5.693,1.354 1.736,1.204 2.008,2.776 2.042,4.307 C 7.069,-2.138 3.314,-1.003 0,0 m -116.421,0 c -2.914,0.882 -5.668,1.714 -5.945,3.727 0.042,1.175 0.36,1.93 1.007,2.383 0.816,0.604 2.588,1.025 4.31,1.025 1.727,0 3.371,-0.626 3.847,-1.058 0.566,-0.517 0.929,-1.377 1.141,-2.706 0.046,-0.295 0.216,-0.56 0.466,-0.727 0.248,-0.166 0.556,-0.223 0.848,-0.154 l 0.437,0.103 c 0.544,0.129 0.904,0.662 0.819,1.215 -0.28,1.832 -0.948,3.245 -1.985,4.197 -1.121,1.033 -3.36,1.727 -5.573,1.727 -2.344,0 -4.528,-0.561 -5.837,-1.497 -1.831,-1.27 -2.083,-3.203 -2.114,-4.557 0,-3.598 4.06,-4.906 7.641,-6.06 2.661,-0.856 5.412,-1.743 5.412,-3.175 -0.035,-1.383 -0.369,-1.883 -0.95,-2.291 -0.762,-0.582 -2.353,-0.944 -4.152,-0.944 -1.848,0 -3.299,0.28 -4.082,0.785 -0.7,0.457 -1.137,1.176 -1.51,2.48 -0.16,0.561 -0.749,0.899 -1.316,0.747 l -0.506,-0.135 c -0.286,-0.075 -0.53,-0.267 -0.671,-0.525 -0.141,-0.257 -0.171,-0.566 -0.082,-0.846 0.531,-1.67 1.183,-2.961 2.623,-3.823 1.221,-0.812 3.022,-1.208 5.508,-1.208 2.553,0 4.473,0.458 5.694,1.355 1.735,1.204 2.005,2.776 2.04,4.306 0,3.518 -3.755,4.654 -7.07,5.656 m 100.227,9.836 c -0.38,0.023 -0.746,-0.134 -1.001,-0.392 -0.242,-0.24 -0.374,-0.574 -0.374,-0.94 v -18.798 c 0,-0.295 0.079,-0.565 0.237,-0.803 0.082,-0.123 0.185,-0.225 0.302,-0.301 0.234,-0.156 0.511,-0.239 0.802,-0.239 0.367,0 0.7,0.133 0.939,0.374 0.262,0.26 0.406,0.604 0.406,0.969 V 8.504 c 0,0.366 -0.143,0.699 -0.402,0.942 -0.226,0.24 -0.555,0.382 -0.909,0.39 m -8.755,-0.252 h -9.487 c -0.363,0 -0.706,-0.142 -0.961,-0.398 -0.174,-0.172 -0.381,-0.476 -0.381,-0.944 0,-0.273 0.08,-0.533 0.239,-0.773 0.077,-0.115 0.174,-0.215 0.294,-0.297 0.236,-0.159 0.516,-0.243 0.809,-0.243 h 3.489 v -17.223 c 0,-0.289 0.082,-0.566 0.237,-0.801 0.08,-0.122 0.183,-0.224 0.306,-0.306 0.237,-0.157 0.496,-0.236 0.77,-0.236 0.367,0 0.7,0.133 0.936,0.371 0.263,0.261 0.408,0.606 0.408,0.972 V 6.929 h 3.341 c 0.37,0 0.697,0.132 0.95,0.385 0.325,0.333 0.393,0.688 0.393,0.928 0,0.372 -0.149,0.713 -0.385,0.925 -0.245,0.269 -0.585,0.417 -0.958,0.417 m -18.21,0.292 c -0.367,0 -0.72,-0.147 -0.961,-0.397 -0.246,-0.243 -0.381,-0.578 -0.381,-0.945 v -11.87 c 0,-0.993 -0.246,-1.92 -0.729,-2.756 -0.491,-0.833 -1.17,-1.511 -2.017,-2.014 -0.823,-0.484 -1.742,-0.729 -2.732,-0.729 -0.994,0 -1.921,0.245 -2.749,0.722 -0.839,0.508 -1.522,1.188 -2.025,2.013 -0.487,0.844 -0.734,1.773 -0.734,2.764 v 11.87 c 0,0.364 -0.141,0.696 -0.398,0.939 -0.227,0.242 -0.56,0.385 -0.918,0.392 -0.386,0.03 -0.748,-0.137 -0.995,-0.392 C -57.969,9.302 -58.173,9 -58.173,8.534 v -11.87 c 0,-1.471 0.364,-2.854 1.087,-4.115 0.736,-1.249 1.744,-2.254 2.999,-2.991 1.252,-0.716 2.634,-1.079 4.108,-1.079 1.455,0 2.83,0.364 4.088,1.085 1.253,0.734 2.25,1.741 2.961,2.985 0.741,1.254 1.116,2.638 1.116,4.115 v 11.87 c 0,0.366 -0.143,0.7 -0.402,0.943 -0.242,0.257 -0.576,0.399 -0.943,0.399 M -65.523,-8.951 h -7.675 V 8.417 c 0,0.375 -0.149,0.715 -0.385,0.925 -0.226,0.249 -0.56,0.399 -0.915,0.409 -0.375,0.004 -0.739,-0.13 -1.005,-0.389 -0.174,-0.172 -0.381,-0.475 -0.381,-0.945 v -18.711 c 0,-0.289 0.083,-0.565 0.239,-0.803 0.082,-0.123 0.185,-0.224 0.303,-0.302 0.238,-0.158 0.508,-0.238 0.802,-0.238 h 9.017 c 0.346,0 0.669,0.133 0.908,0.372 0.262,0.26 0.407,0.605 0.407,0.971 0,0.363 -0.142,0.695 -0.399,0.938 -0.241,0.261 -0.565,0.405 -0.916,0.405 m -20.162,3.973 c -0.722,-1.219 -1.706,-2.203 -2.919,-2.92 -1.212,-0.699 -2.567,-1.053 -4.028,-1.053 -1.443,0 -2.797,0.354 -4.017,1.048 -1.221,0.721 -2.205,1.702 -2.921,2.909 -0.702,1.232 -1.058,2.586 -1.058,4.026 0,1.457 0.354,2.808 1.049,4.01 0.724,1.221 1.709,2.204 2.924,2.922 1.232,0.717 2.586,1.081 4.023,1.081 1.455,0 2.807,-0.362 4.018,-1.078 1.221,-0.721 2.207,-1.705 2.929,-2.925 0.716,-1.209 1.079,-2.558 1.079,-4.01 0,-1.434 -0.363,-2.784 -1.079,-4.01 m -1.59,13.241 c -1.63,0.974 -3.432,1.468 -5.357,1.468 -1.925,0 -3.734,-0.493 -5.376,-1.463 -1.621,-0.95 -2.924,-2.261 -3.869,-3.893 -0.954,-1.625 -1.438,-3.422 -1.438,-5.343 0,-1.92 0.483,-3.727 1.438,-5.372 0.949,-1.616 2.252,-2.916 3.874,-3.866 1.639,-0.949 3.446,-1.431 5.371,-1.431 1.926,0 3.725,0.482 5.343,1.431 1.641,0.949 2.954,2.249 3.901,3.863 0.974,1.644 1.469,3.453 1.469,5.375 0,1.924 -0.494,3.721 -1.464,5.337 -0.948,1.637 -2.26,2.949 -3.892,3.894" />
    </g>
    <g
       transform="matrix(0.35277777,0,0,-0.35277777,-197.95719,110.32826)"
       id="g3815">
      <path
         inkscape:connector-curvature="0"
         id="path3817"
         style="fill:#0076c0;fill-opacity:1;fill-rule:nonzero;stroke:none"
         d="m 0,0 2.328,-6.221 -7.325,-2.74 c -2.581,2.584 -5.215,3.373 -7.904,2.366 -1.239,-0.463 -2.119,-1.236 -2.641,-2.319 -0.487,-1.07 -0.5,-2.224 -0.036,-3.462 0.53,-1.416 1.513,-2.318 2.95,-2.709 1.074,-0.283 2.96,-0.365 5.657,-0.243 5.001,0.218 8.874,-0.269 11.619,-1.461 0.444,-0.192 0.867,-0.412 1.272,-0.652 V -2.833 C 5.92,-1.263 4.657,0 3.087,0 Z" />
    </g>
    <g
       transform="matrix(0.35277777,0,0,-0.35277777,-209.23747,110.32826)"
       id="g3819">
      <path
         inkscape:connector-curvature="0"
         id="path3821"
         style="fill:#0076c0;fill-opacity:1;fill-rule:nonzero;stroke:none"
         d="m 0,0 c -1.57,0 -2.833,-1.263 -2.833,-2.833 v -35.063 c 0,-1.569 1.263,-2.833 2.833,-2.833 h 18.354 l -2.754,7.361 6.953,2.601 c 1.064,-1.659 2.408,-2.77 4.03,-3.332 1.645,-0.514 3.352,-0.441 5.121,0.222 1.592,0.595 2.705,1.556 3.338,2.882 0.633,1.327 0.665,2.751 0.096,4.272 -0.636,1.699 -1.811,2.791 -3.526,3.279 -1.353,0.382 -3.628,0.478 -6.825,0.29 -2.494,-0.126 -4.207,-0.182 -5.141,-0.169 -1.724,0.081 -3.163,0.369 -4.317,0.865 -2.891,1.259 -4.912,3.426 -6.064,6.505 -1.245,3.326 -1.165,6.563 0.239,9.71 1.318,2.954 3.389,5.035 6.213,6.243 z" />
    </g>
    <g
       transform="matrix(0.35277777,0,0,-0.35277777,-197.82334,124.3648)"
       id="g3823">
      <path
         inkscape:connector-curvature="0"
         id="path3825"
         style="fill:#0076c0;fill-opacity:1;fill-rule:nonzero;stroke:none"
         d="m 0,0 c 0,-0.779 -0.631,-1.41 -1.41,-1.41 -0.778,0 -1.41,0.631 -1.41,1.41 0,0.779 0.632,1.41 1.41,1.41 C -0.631,1.41 0,0.779 0,0" />
    </g>
    <g
       transform="matrix(0.35277777,0,0,-0.35277777,-195.8686,124.0334)"
       id="g3827">
      <path
         inkscape:connector-curvature="0"
         id="path3829"
         style="fill:#0076c0;fill-opacity:1;fill-rule:nonzero;stroke:none"
         d="m 0,0 c 0,-1.038 -0.841,-1.879 -1.879,-1.879 -1.039,0 -1.881,0.841 -1.881,1.879 0,1.039 0.842,1.88 1.881,1.88 C -0.841,1.88 0,1.039 0,0" />
    </g>
    <g
       transform="matrix(0.35277777,0,0,-0.35277777,-199.47544,124.3648)"
       id="g3831">
      <path
         inkscape:connector-curvature="0"
         id="path3833"
         style="fill:#0076c0;fill-opacity:1;fill-rule:nonzero;stroke:none"
         d="m 0,0 c 0,-0.52 -0.42,-0.94 -0.939,-0.94 -0.52,0 -0.94,0.42 -0.94,0.94 0,0.519 0.42,0.939 0.94,0.939 C -0.42,0.939 0,0.519 0,0" />
    </g>
  </g>
</svg>
