<?xml version="1.0" encoding="UTF-8" standalone="no"?>
<svg
   xmlns:dc="http://purl.org/dc/elements/1.1/"
   xmlns:cc="http://creativecommons.org/ns#"
   xmlns:rdf="http://www.w3.org/1999/02/22-rdf-syntax-ns#"
   xmlns:svg="http://www.w3.org/2000/svg"
   xmlns="http://www.w3.org/2000/svg"
   viewBox="0 0 86.666664 82.666664"
   height="82.666664"
   width="86.666664"
   xml:space="preserve"
   id="svg2"
   version="1.1"><metadata
     id="metadata8"><rdf:RDF><cc:Work
         rdf:about=""><dc:format>image/svg+xml</dc:format><dc:type
           rdf:resource="http://purl.org/dc/dcmitype/StillImage" /></cc:Work></rdf:RDF></metadata><defs
     id="defs6" /><g
     transform="matrix(1.3333333,0,0,-1.3333333,0,82.666667)"
     id="g10"><g
       transform="scale(0.1)"
       id="g12"><path
         id="path14"
         style="fill:#0f2752;fill-opacity:1;fill-rule:evenodd;stroke:none"
         d="m 323.387,343.457 c 0,0 21.668,-20.828 23.074,-21.949 1.973,-1.41 4.227,1.687 7.043,-1.969 1.402,-1.973 0,-4.504 -1.133,-5.348 v 0 l -12.101,-5.91 v 0 c 0,0 -1.965,-1.125 -4.5,1.407 -1.407,1.41 -22.793,21.953 -22.793,21.953 v 0 l 10.41,11.816 v 0" /><path
         id="path16"
         style="fill:#0f2752;fill-opacity:1;fill-rule:nonzero;stroke:none"
         d="m 34.1523,298.504 c -0.746,9.129 -2.3515,90.828 44.4454,170.551 24.8363,42.308 63.2853,84.113 122.6723,114.293 l -0.004,0.007 c 60.379,30.817 117.613,37.665 167.035,32.918 85.176,-8.179 147.265,-50.972 162.269,-64.707 h 0.012 c 5.719,-5.257 8.75,-11.207 9.41,-17.164 0.707,-6.386 -1.324,-12.683 -5.691,-18.062 l -0.055,-0.07 c -4.18,-4.879 -10.269,-8.36 -16.941,-8.993 h -0.012 c -5.816,-0.543 -12.043,1.055 -17.785,5.739 l -0.016,0.015 c -16.652,13.699 -66.625,47.59 -135.293,54.02 -41.097,3.847 -88.918,-2.168 -140.308,-28.274 v -0.004 C 155.621,503.945 120.723,450.941 102.898,403.398 85.0469,355.777 84.2813,313.551 84.2813,300.473 c 0,-6.891 -2.793,-12.852 -6.8633,-17.258 -4.6172,-5.008 -10.9883,-8.047 -16.8477,-8.223 l -0.0976,-0.012 c -7.5821,0 -13.4961,2.641 -17.7891,6.458 -5.3594,4.761 -8.1484,11.414 -8.5273,17.066 z M 84.6836,465.48 C 38.9375,387.543 40.4844,307.949 41.2109,299.059 v -0.055 c 0.2579,-4.027 2.2774,-8.809 6.1797,-12.277 3.0977,-2.754 7.4336,-4.661 13.0821,-4.661 v -0.007 c 3.9882,0.156 8.4179,2.343 11.7421,5.945 2.9532,3.199 4.9766,7.508 4.9766,12.469 0,13.375 0.7852,56.566 19.0899,105.39 C 114.617,454.77 150.5,509.277 220.684,545.082 h 0.011 c 52.731,26.793 101.871,32.957 144.141,29 70.555,-6.605 121.965,-41.477 139.125,-55.586 v 0.004 c 4.168,-3.402 8.598,-4.57 12.68,-4.191 4.781,0.453 9.179,2.992 12.234,6.558 3.121,3.875 4.578,8.324 4.086,12.762 -0.477,4.293 -2.781,8.699 -7.168,12.73 l 0.004,0.008 c -14.574,13.34 -74.953,54.887 -158.16,62.875 -48.235,4.629 -104.133,-2.07 -163.164,-32.195 h -0.012 C 146.453,547.563 108.918,506.766 84.6836,465.48" /><path
         id="path18"
         style="fill:#ed192d;fill-opacity:1;fill-rule:nonzero;stroke:none"
         d="m 44.9844,300.668 c -0.2813,8.523 -1.4883,55.633 18.1679,111.164 19.6797,55.602 60.2537,119.699 143.4997,162.172 57.766,29.473 112.129,36.078 158.969,31.738 87.59,-8.113 148.867,-54.558 157.012,-61.039 3.433,-2.625 5.828,-5.672 6.656,-9.285 v 0 c 0.84,-3.672 0.035,-7.719 -2.961,-12.219 v -0.011 l -0.051,-0.079 -0.004,0.004 c -1.714,-2.566 -4.996,-4.468 -8.726,-5.078 -3.602,-0.59 -7.715,-0.019 -11.27,2.27 l -0.011,0.011 -0.161,0.106 -0.097,0.066 -1.145,0.821 -0.011,0.007 C 485.969,534.875 364.75,621.906 219.914,548.125 168.23,521.793 134.789,485.777 113.191,449.398 73.3125,382.219 73.7305,313.863 74.2695,302.859 v -0.046 c 0.0313,-0.934 0.0157,-1.817 -0.0429,-2.629 -0.2891,-4.09 -1.6094,-7.621 -3.8203,-10.192 -2.3165,-2.707 -5.5586,-4.344 -9.5625,-4.469 h -0.0079 c -0.582,-0.019 -1.1484,-0.011 -1.6875,0.028 v 0.004 c -3.6953,0.195 -7.414,1.703 -10.1171,4.609 -2.3204,2.488 -3.8907,5.977 -4.0469,10.504 z M 68.4883,409.953 C 49.1719,355.383 50.3555,309.199 50.6328,300.844 c 0.1016,-3.016 1.086,-5.27 2.5352,-6.828 1.664,-1.782 3.9883,-2.707 6.3125,-2.821 h 0.0664 c 0.4101,-0.027 0.7851,-0.039 1.1015,-0.027 h 0.0118 c 2.3046,0.07 4.1523,0.988 5.4492,2.496 1.4101,1.645 2.2695,4.043 2.4726,6.914 0.0469,0.68 0.0625,1.36 0.043,2.016 -0.5547,11.254 -0.9922,81.144 39.699,149.683 22.078,37.196 56.254,74.012 109.024,100.899 147.863,75.324 271.496,-13.41 290.789,-27.266 l 1.093,-0.777 0.102,-0.07 0.004,0.003 c 2.285,-1.472 4.957,-1.836 7.305,-1.453 2.211,0.364 4.066,1.352 4.918,2.633 v 0.012 l 0.054,0.074 h 0.004 c 2.051,3.09 2.649,5.664 2.156,7.824 v 0.008 c -0.5,2.203 -2.171,4.215 -4.617,6.078 l -0.043,0.035 c -7.988,6.352 -68.054,51.879 -154.004,59.844 -45.89,4.246 -99.187,-2.238 -155.89,-31.168 -81.656,-41.664 -121.4377,-104.504 -140.7307,-159" /><path
         id="path20"
         style="fill:#0f2752;fill-opacity:1;fill-rule:nonzero;stroke:none"
         d="m 140.859,350.949 c 0.719,3.723 5.454,27.828 21.059,56.571 15.605,28.734 42.098,62.168 86.348,84.652 l -0.004,0.004 c 44.375,22.617 85.695,25.054 117.343,21.148 31.637,-3.894 53.668,-14.156 59.407,-16.883 l 0.027,-0.015 0.195,-0.094 0.043,-0.027 c 5.457,-2.727 9.012,-7.477 10.664,-12.61 1.653,-5.144 1.403,-10.757 -0.75,-15.199 l -0.015,-0.016 -0.071,-0.144 v -0.027 c -2.617,-5.25 -6.5,-8.598 -10.527,-10.477 -5.285,-2.461 -10.965,-2.371 -14.609,-0.754 l -0.043,0.027 c -8.129,3.723 -26.61,11.86 -51.61,14.684 -24.976,2.816 -56.503,0.336 -90.804,-17.16 H 267.5 c -33.742,-17.078 -54.117,-40.82 -66.496,-62.309 -12.395,-21.519 -16.816,-40.851 -18.609,-48.988 v -0.027 c -1.098,-4.754 -4.25,-9.598 -8.864,-12.766 -3.961,-2.715 -9.004,-4.23 -14.746,-3.457 h -0.027 l -0.875,0.125 -0.082,0.016 c -6.582,1.097 -11.11,4.851 -13.863,9.332 -2.704,4.394 -3.676,9.57 -3.2,13.586 l 0.016,0.086 0.078,0.558 z m 27.262,53.192 c -15.004,-27.633 -19.582,-50.743 -20.305,-54.473 l -0.05,-0.355 h 0.004 c -0.313,-2.618 0.359,-6.059 2.199,-9.051 1.777,-2.895 4.695,-5.328 8.91,-6.051 l 0.875,-0.125 v -0.004 c 3.82,-0.508 7.168,0.496 9.793,2.297 3.113,2.137 5.23,5.363 5.953,8.504 h 0.008 c 1.867,8.469 6.461,28.523 19.379,50.953 12.945,22.469 34.222,47.285 69.418,65.098 l -0.004,0.004 c 35.769,18.246 68.695,20.828 94.793,17.882 26.019,-2.941 45.238,-11.386 53.722,-15.269 l 0.004,0.008 c 2.039,-0.907 5.422,-0.864 8.77,0.695 2.723,1.269 5.363,3.57 7.18,7.211 l 0.011,-0.004 0.051,0.105 h -0.008 c 1.371,2.832 1.496,6.512 0.387,9.969 -1.109,3.453 -3.465,6.629 -7.047,8.434 l -0.004,-0.004 -0.164,0.078 c -5.516,2.625 -26.695,12.488 -57.246,16.254 -30.543,3.762 -70.422,1.414 -113.281,-20.43 h -0.012 c -42.695,-21.691 -68.269,-53.976 -83.336,-81.726" /><path
         id="path22"
         style="fill:#ed192d;fill-opacity:1;fill-rule:nonzero;stroke:none"
         d="m 149.738,351.457 0.18,0.813 c 2.684,12.168 19.98,90.519 102.324,132.523 h 0.012 c 30.051,15.273 58.844,20.816 83.867,21.41 47.223,1.117 81.137,-15.457 84.977,-17.461 h 0.004 c 2.718,-1.355 5.023,-3.664 6.191,-6.762 0.988,-2.613 1.148,-5.753 0.02,-9.289 l -0.012,-0.031 c -0.981,-2.953 -3.258,-5.39 -6.242,-6.707 -2.68,-1.183 -5.95,-1.484 -9.344,-0.469 l -0.047,0.024 c -0.734,0.234 -1.75,0.672 -3.188,1.285 -14.468,6.187 -73.949,31.629 -144.949,-4.5 -68.363,-34.832 -84.445,-97.473 -88.558,-113.496 l 0.011,-0.004 c -0.175,-0.688 -0.347,-1.348 -0.586,-2.215 l -0.011,-0.055 -0.012,-0.023 c -0.863,-3.879 -2.863,-6.957 -5.434,-8.914 l 0.004,-0.004 c -2.726,-2.07 -6.062,-2.902 -9.41,-2.176 l -0.14,0.043 c -4.18,1.078 -6.704,3.262 -8.18,5.731 -2.324,3.863 -1.902,8.347 -1.477,10.277 z m 5.696,-0.406 -0.18,-0.813 c -0.262,-1.187 -0.535,-3.922 0.809,-6.156 0.773,-1.293 2.179,-2.469 4.582,-3.125 v 0.004 l 0.043,-0.008 0.046,-0.008 c 1.684,-0.367 3.379,0.067 4.782,1.133 h 0.007 c 1.543,1.176 2.766,3.11 3.332,5.617 h -0.007 l 0.015,0.082 0.047,0.168 0.578,2.243 h 0.012 c 4.242,16.531 20.836,81.171 91.465,117.156 73.348,37.332 134.789,11.043 149.734,4.652 1.309,-0.558 2.254,-0.965 2.629,-1.09 l 0.004,0.004 c 2.02,-0.605 3.926,-0.449 5.445,0.223 1.532,0.676 2.68,1.859 3.157,3.265 0.699,2.204 0.632,4.082 0.066,5.586 -0.629,1.668 -1.91,2.93 -3.422,3.684 l -0.058,0.035 c -3.43,1.805 -36.239,17.945 -82.27,16.852 -24.273,-0.571 -52.223,-5.965 -81.445,-20.809 l 0.004,-0.004 C 174.836,438.941 158.043,362.867 155.434,351.051" /><path
         id="path24"
         style="fill:#ed192d;fill-opacity:1;fill-rule:nonzero;stroke:none"
         d="M 633.66,355.973 C 636.434,343.77 647.262,256.668 603.598,171.297 580.008,125.176 540.555,79.5195 475.438,46.3633 411.746,13.9219 351.719,9.16797 300.199,17.2617 204.277,32.3359 137.625,92.3047 131.633,100.707 l -0.008,0.012 c -3.863,5.375 -4.07,9.902 -3.008,13.398 1.055,3.457 3.289,5.696 4.442,6.844 l 0.156,0.144 c 1.519,1.305 5.715,3.821 10.887,3.309 3.156,-0.312 6.66,-1.707 10.082,-5.117 17.019,-16.492 72.07,-62.8361 150.031,-74.6759 45.746,-6.9453 99.414,-1.9961 157.961,27.8945 56.765,28.8594 92.304,69.9574 114.054,112.0314 35.372,68.406 34.438,139.301 29.11,164.586 v 0 c -0.61,2.84 -0.391,7.457 2.113,11.398 1.781,2.809 4.68,5.282 9.176,6.547 h 0.012 l 0.172,0.047 0.035,0.012 c 3.793,0.996 7.582,-0.129 10.625,-2.336 2.902,-2.102 5.179,-5.266 6.097,-8.465 l 0.008,-0.043 0.059,-0.211 z m -35.09,-182.11 c 42.723,83.535 32.344,168.453 29.594,180.754 l -0.043,0.168 c -0.574,2.016 -2.062,4.047 -3.973,5.43 -1.773,1.285 -3.882,1.969 -5.859,1.449 v 0.004 l -0.129,-0.035 v -0.004 c -2.953,-0.832 -4.816,-2.391 -5.922,-4.133 -1.59,-2.504 -1.738,-5.418 -1.359,-7.187 v -0.012 c 5.465,-25.922 6.476,-98.531 -29.617,-168.34 C 559.02,138.941 522.711,96.9336 464.742,67.4648 404.992,36.9609 350.148,31.918 303.375,39.0195 223.809,51.1055 167.613,98.4141 150.242,115.242 l -0.035,0.035 c -2.359,2.364 -4.652,3.317 -6.66,3.512 -3.121,0.309 -5.625,-1.125 -6.59,-1.922 -0.836,-0.836 -2.324,-2.371 -2.934,-4.39 -0.625,-2.051 -0.406,-4.848 2.196,-8.469 l 0.008,-0.012 c 5.769,-8.1132 70.722,-66.3671 164.832,-81.1562 50.48,-7.9296 109.316,-3.2578 171.812,28.5743 63.91,32.5429 102.598,77.2809 125.699,122.4489" /><path
         id="path26"
         style="fill:#0f2752;fill-opacity:1;fill-rule:nonzero;stroke:none"
         d="M 643.945,359.109 C 647.777,339.063 656.738,251.281 613.516,165.66 589.148,117.387 548.223,69.7695 480.543,35.3164 413.734,1.28516 351.117,-3.70703 297.422,5 205.715,19.8711 139.988,74.9063 123.953,93.2734 l -0.004,-0.0039 c -4.597,5.2266 -6.574,11.4845 -6.344,17.5235 0.243,6.402 2.985,12.551 7.723,16.945 4.719,4.383 10.883,7.012 17.149,7.196 5.836,0.171 11.734,-1.762 16.636,-6.332 18.797,-17.235 73.672,-60.7387 148.039,-72.4301 44.348,-6.9727 95.684,-2.6211 150.485,25.4023 v 0.0156 c 54.465,27.7502 88.136,66.5232 108.672,106.1402 34.578,66.711 32.039,135.817 28.73,158.961 h 0.008 c -1.231,7.782 0.168,14.571 3.551,19.84 3.566,5.555 9.277,9.364 16.386,10.852 l 0.575,0.121 0.054,0.012 c 7.235,1.406 13.657,-0.188 18.59,-3.563 4.957,-3.383 8.391,-8.57 9.637,-14.32 v -0.031 l 0.094,-0.438 z M 607.207,168.848 c 42.258,83.711 33.523,169.379 29.789,188.933 H 637 l -0.074,0.352 h -0.008 c -0.867,4.019 -3.258,7.633 -6.699,9.98 -3.461,2.367 -8.039,3.469 -13.278,2.453 v 0.004 l -0.515,-0.109 c -5.207,-1.086 -9.348,-3.813 -11.875,-7.75 -2.477,-3.859 -3.481,-8.973 -2.524,-14.969 l 0.016,-0.054 C 605.441,323.906 608.059,252.922 572.59,184.492 551.445,143.703 516.813,103.797 460.844,75.2773 l -0.004,0.0118 C 404.52,46.4922 351.715,42.0273 306.074,49.1992 229.785,61.1953 173.574,105.75 154.324,123.398 l -0.015,0.012 c -3.446,3.223 -7.575,4.586 -11.641,4.465 -4.531,-0.133 -9.031,-2.078 -12.52,-5.312 -3.367,-3.122 -5.312,-7.485 -5.488,-12.02 -0.164,-4.309 1.274,-8.813 4.606,-12.5977 V 97.9297 C 144.852,80.0703 208.883,26.5078 298.527,11.9727 350.91,3.48047 412.043,8.37109 477.336,41.625 c 66.141,33.6758 106.102,80.137 129.871,127.223" /><path
         id="path28"
         style="fill:#0f2752;fill-opacity:1;fill-rule:nonzero;stroke:none"
         d="m 532.844,239.426 c -0.211,-0.496 -0.403,-0.996 -0.66,-1.668 l 0.011,-0.004 c -4.793,-12.5 -28.343,-73.891 -98.929,-109.852 -68.43,-34.9098 -132.477,-18.339 -147,-14.586 l -0.985,0.254 h -0.015 c -0.391,0.106 -0.828,0.239 -1.309,0.395 -6.383,2.129 -10.055,6.769 -11.875,11.777 -1.746,4.817 -1.738,10.059 -0.805,13.625 v 0.016 c 0.082,0.316 0.176,0.64 0.286,0.961 l 0.027,0.094 c 1.867,5.093 5.535,9.16 10.18,11.632 4.515,2.403 9.945,3.297 15.523,2.153 l 0.137,-0.028 2.215,-0.547 h 0.015 c 14.637,-3.66 61.215,-15.3 114.653,11.805 v -0.008 c 58.011,29.696 74.515,76.285 77.789,85.535 l 0.105,0.297 0.016,0.043 c 0.355,0.981 0.777,1.969 1.25,2.957 h -0.008 c 3.422,7.196 8.348,10.801 13.316,12.293 4.949,1.485 9.891,0.809 13.434,-0.496 0.543,-0.203 1.086,-0.433 1.601,-0.676 v -0.003 c 5.481,-2.469 8.809,-6.34 10.61,-10.489 v -0.011 c 2.371,-5.473 2.015,-11.477 0.449,-15.403 z m -7.25,0.844 0.722,1.863 0.016,0.035 v 0.004 c 0.977,2.488 1.168,6.332 -0.379,9.914 h -0.008 c -1.172,2.699 -3.39,5.238 -7.078,6.891 l -0.066,0.027 c -0.293,0.141 -0.641,0.281 -1.024,0.426 -2.39,0.879 -5.703,1.343 -8.976,0.363 -3.25,-0.977 -6.531,-3.461 -8.942,-8.531 l -0.011,-0.012 c -0.317,-0.664 -0.649,-1.457 -0.981,-2.367 l -0.09,-0.254 c -3.429,-9.688 -20.714,-58.481 -81.269,-89.473 l -0.012,-0.015 C 361.711,130.848 313.188,142.973 297.941,146.781 v 0.004 l -2.187,0.543 c -3.863,0.758 -7.59,0.145 -10.664,-1.488 -3.125,-1.664 -5.598,-4.406 -6.856,-7.836 l -0.121,-0.418 h -0.004 c -0.632,-2.43 -0.613,-6.043 0.618,-9.434 1.164,-3.203 3.476,-6.16 7.449,-7.484 0.226,-0.078 0.535,-0.164 0.887,-0.258 v -0.004 l 0.972,-0.254 c 14.043,-3.625 75.949,-19.648 142.024,14.063 68.156,34.723 90.89,93.988 95.519,106.055 z M 278.234,138.004 V 138 v 0.004" /><path
         id="path30"
         style="fill:#ed192d;fill-opacity:1;fill-rule:nonzero;stroke:none"
         d="m 524.629,241.758 -0.219,-0.617 c -3.015,-8.387 -25.137,-70.024 -94.285,-105.286 -34.961,-17.839 -69.078,-21.839 -95.16,-21.16 -26.117,0.676 -44.211,6.047 -47.07,6.907 l -0.047,0.019 c -0.547,0.176 -1.067,0.379 -1.543,0.598 h -0.012 c -3.145,1.449 -5.27,3.933 -6.422,6.605 -1.168,2.715 -1.344,5.699 -0.598,8.059 l 0.012,0.012 c 0.102,0.32 0.231,0.648 0.375,0.968 l 0.012,0.024 c 1.367,2.91 3.226,5.258 5.844,6.703 2.613,1.441 5.859,1.914 9.953,1.062 l 0.109,-0.023 1.695,-0.484 c 10.559,-3.075 60.786,-17.704 121.282,13.199 l 0.011,0.011 c 56.973,28.852 75.274,74.407 80.934,88.5 0.723,1.801 1.246,3.11 1.695,3.977 v 0.004 c 0.422,0.816 0.891,1.582 1.391,2.277 2.668,3.719 6.035,5.211 9.105,5.575 3.039,0.355 5.832,-0.442 7.391,-1.243 l -0.004,-0.007 c 0.363,-0.184 0.684,-0.375 0.934,-0.555 l 0.097,-0.078 c 0.848,-0.68 2.731,-2.313 4.036,-4.789 1.378,-2.618 2.117,-6.09 0.492,-10.262 z m -5.539,1.285 0.25,0.691 0.023,0.079 c 0.895,2.296 0.512,4.175 -0.222,5.566 -0.762,1.441 -1.895,2.461 -2.477,2.945 l -0.16,0.094 h -0.012 c -0.836,0.43 -2.383,0.852 -4.137,0.645 -1.714,-0.204 -3.617,-1.071 -5.183,-3.25 -0.32,-0.446 -0.641,-0.973 -0.949,-1.571 l -0.012,-0.012 c -0.277,-0.531 -0.781,-1.781 -1.461,-3.476 -5.852,-14.563 -24.758,-61.633 -83.637,-91.449 l -0.004,0.008 c -62.488,-31.915 -114.476,-16.774 -125.406,-13.594 -0.578,0.168 -1.023,0.301 -1.492,0.418 -2.598,0.519 -4.535,0.285 -5.977,-0.508 -1.457,-0.805 -2.566,-2.262 -3.437,-4.113 l -0.129,-0.336 0.008,-0.004 c -0.356,-1.125 -0.227,-2.645 0.402,-4.11 0.649,-1.507 1.84,-2.906 3.586,-3.711 l -0.004,-0.003 c 0.274,-0.125 0.563,-0.239 0.848,-0.336 l 0.004,0.007 c 2.765,-0.832 20.281,-6.023 45.582,-6.683 25.336,-0.656 58.488,3.23 92.465,20.566 67.164,34.25 88.613,94.004 91.531,102.137 z M 294.211,140.137 h -0.004 z M 516.664,252.32 v 0.004 -0.004" /><path
         id="path32"
         style="fill:#0f2752;fill-opacity:1;fill-rule:evenodd;stroke:none"
         d="m 71.6953,182.77 3.0938,-6.477 v 0 c 1.9726,1.125 12.664,11.543 6.1953,24.211 v 0 L 58.75,243.551 v 0 c 0,0 -1.9687,4.508 0.8438,8.449 1.6875,2.527 -0.8438,7.316 -4.5,5.344 v 0 l -10.6954,-5.629 v 0 c 0,0 -3.0937,-1.406 -1.6875,-4.219 1.6875,-3.379 3.3789,-2.535 5.6289,-3.094 0.8438,-0.285 3.9375,-1.129 5.0665,-3.664 v 0 l 20.539,-40.519 v 0 c 0,0 5.6289,-9.285 -2.25,-17.449 v 0" /><path
         id="path34"
         style="fill:#0f2752;fill-opacity:1;fill-rule:evenodd;stroke:none"
         d="m 40.1797,178.551 c 3.6562,-7.602 11.2539,-9.012 17.1601,-8.727 7.6016,0.278 14.6407,5.067 14.6407,5.067 v 0 l -3.1016,6.468 v 0 c -6.75,-0.843 -9.2851,4.789 -9.2851,4.789 v 0 l -24.7657,48.684 v 0 c 0,0 -1.4023,2.531 -0.2812,4.504 1.9726,1.121 0.5664,7.879 -4.7813,5.066 v 0 l -18.5703,-9.285 v 0 c 0,0 -1.97264,-1.133 -2.25389,-2.539 -0.28125,-1.406 0.5625,-4.5 3.37499,-4.785 1.4102,0 2.5313,0.285 3.9414,-2.531 v 0 l 23.9219,-46.711 v 0" /><path
         id="path36"
         style="fill:#0f2752;fill-opacity:1;fill-rule:evenodd;stroke:none"
         d="m 77.8945,247.215 21.0977,-41.09 v 0 c 0,0 1.9768,-5.066 -0.5625,-8.164 -2.25,-2.809 0.5625,-7.594 4.5083,-5.625 v 0 l 10.687,5.348 v 0 c 0,0 2.816,1.41 1.41,4.507 -1.125,2.243 -2.812,1.965 -5.347,2.243 -0.844,0.285 -3.938,1.972 -5.344,4.507 v 0 l -15.1956,29.825 -11.2539,8.449 v 0" /><path
         id="path38"
         style="fill:#0f2752;fill-opacity:1;fill-rule:evenodd;stroke:none"
         d="m 129.672,243.551 -14.356,28.711 v 0 c 0,0 -1.968,5.062 0.563,7.879 2.25,2.812 -0.844,7.882 -4.504,5.91 v 0 l -10.691,-5.629 v 0 c 0,0 -3.0981,-1.41 -1.4067,-4.219 1.1207,-2.535 2.8087,-1.973 5.0667,-2.535 1.121,0 4.219,-1.691 5.344,-4.223 v 0 l 9.003,-17.445 10.981,-8.449 v 0" /><path
         id="path40"
         style="fill:#0f2752;fill-opacity:1;fill-rule:evenodd;stroke:none"
         d="m 73.6602,254.527 59.3828,-46.711 12.102,5.907 -12.102,23.359 -46.4297,36.301 v 0 c -5.6289,-2.813 -19.6953,-9.848 -19.6953,-9.848 0,0 -1.9766,-1.129 -2.5391,-2.25 -0.2812,-1.41 0,-4.504 3.3789,-5.066 1.6875,-0.281 3.0938,0.281 5.9024,-1.692 v 0" /><path
         id="path42"
         style="fill:#0f2752;fill-opacity:1;fill-rule:evenodd;stroke:none"
         d="m 154.434,230.891 c 1.691,-3.098 0.566,-3.375 -0.282,-4.782 -1.129,-2.254 0.848,-4.785 1.973,-5.347 1.406,-0.848 3.371,0.281 3.371,0.281 v 0 l 18.578,9.57 v 0 c 5.34,2.532 1.969,7.875 -1.406,7.317 -2.539,0 -3.66,2.527 -3.66,2.527 v 0 l -26.172,51.504 v 0 c 0,0 -1.691,3.094 -0.281,4.223 1.972,1.687 0.562,8.156 -4.504,5.343 v 0 l -18.856,-9.289 v 0 c 0,0 -1.972,-1.121 -2.254,-2.531 -0.281,-1.406 0.848,-4.785 3.379,-4.785 1.407,-0.281 2.532,0.281 3.938,-2.531 v 0 l 26.176,-51.5 v 0" /><path
         id="path44"
         style="fill:#0f2752;fill-opacity:1;fill-rule:evenodd;stroke:none"
         d="m 341.609,403.191 3.098,-5.91 v 0 c 0,0 5.066,0.563 8.438,-1.125 1.968,-0.847 5.343,-2.535 8.441,-6.476 2.535,-3.094 4.223,-5.344 6.758,-4.5 2.254,1.125 0.566,5.066 -0.563,7.316 -1.41,2.535 -7.601,14.637 -7.601,14.637 0,0 -1.692,4.781 -4.504,3.094 -2.25,-0.848 -1.121,-3.379 -1.121,-4.223 0,-1.125 -0.282,-1.688 -1.41,-1.406 -2.536,0.562 -8.157,0.281 -11.536,-1.407 v 0" /><path
         id="path46"
         style="fill:#0f2752;fill-opacity:1;fill-rule:evenodd;stroke:none"
         d="m 374.254,326.926 -3.102,6.472 v 0 c 0,0 -5.621,-0.843 -10.125,1.407 -2.254,1.129 -5.914,3.941 -9.011,7.879 -2.528,3.379 -4.215,5.347 -6.746,4.507 -2.254,-1.128 -0.563,-5.066 0.558,-7.316 1.406,-2.539 8.727,-16.887 8.727,-16.887 0,0 1.968,-4.785 4.785,-3.379 1.969,1.125 0.84,3.661 0.84,4.219 0,1.129 0.281,1.973 1.406,1.692 2.816,-0.563 9.566,0 12.668,1.406 v 0" /><path
         id="path48"
         style="fill:#0f2752;fill-opacity:1;fill-rule:evenodd;stroke:none"
         d="m 338.512,401.781 3.097,-6.191 v 0 c 0,0 -4.222,-4.219 -1.406,-9.563 1.969,-3.941 4.219,-5.07 8.438,-5.632 3.945,-0.563 13.23,-0.563 19.984,-2.532 4.781,-1.41 10.973,-2.254 17.445,-14.914 8.727,-17.168 -1.406,-30.676 -8.726,-34.336 v 0 l -3.375,6.192 v 0 c 0,0 6.191,4.222 2.539,11.539 -2.539,4.785 -7.324,5.066 -11.543,5.629 -3.938,0.843 -12.102,-0.285 -18.856,2.25 -8.16,3.379 -11.257,6.754 -15.476,15.195 -5.629,11.258 -4.219,26.172 7.879,32.363 v 0" /><path
         id="path50"
         style="fill:#0f2752;fill-opacity:1;fill-rule:evenodd;stroke:none"
         d="m 400.707,354.508 c 1.684,-3.098 0.563,-3.66 0,-4.785 -1.406,-2.254 0.563,-5.067 1.684,-5.629 1.687,-0.844 3.379,0.562 3.379,0.562 v 0 l 18.574,9.567 v 0 c 5.347,2.535 1.969,7.882 -1.406,7.035 -2.528,0.285 -3.379,2.816 -3.379,2.816 v 0 l -26.454,51.219 v 0 c 0,0 -1.687,3.094 0,4.504 1.973,1.687 0.286,7.879 -4.781,5.344 v 0 l -18.574,-9.567 v 0 c 0,0 -2.254,-0.847 -2.531,-2.254 -0.285,-1.406 0.84,-4.785 3.379,-4.785 1.402,-0.277 2.531,0.285 3.933,-2.531 v 0 l 26.176,-51.496 v 0" /><path
         id="path52"
         style="fill:#0f2752;fill-opacity:1;fill-rule:evenodd;stroke:none"
         d="m 245.559,278.242 c 1.402,-2.812 0.281,-3.375 -0.282,-4.504 -1.41,-1.968 0.563,-5.066 1.969,-5.625 1.406,-0.566 3.094,0.278 3.094,0.278 v 0 l 18.859,9.57 -36.304,71.195 -18.575,-9.566 v 0 c 0,0 -2.254,-0.844 -2.531,-2.254 -0.281,-1.688 0.844,-4.781 3.371,-5.063 1.414,0 2.539,0.563 3.945,-2.535 v 0 l 26.454,-51.496 v 0" /><path
         id="path54"
         style="fill:#0f2752;fill-opacity:1;fill-rule:evenodd;stroke:none"
         d="m 239.086,343.813 -3.379,6.753 17.164,8.723 10.418,-20.543 v 0 c 0,0 1.125,-2.531 -0.848,-3.656 -3.378,-1.692 -7.316,5.344 -11.261,7.316 -5.903,2.813 -12.094,1.407 -12.094,1.407 v 0" /><path
         id="path56"
         style="fill:#0f2752;fill-opacity:1;fill-rule:evenodd;stroke:none"
         d="m 255.688,311.449 c 0,0 3.375,1.969 8.445,-4.504 2.25,-2.535 3.375,-3.937 5.347,-2.812 2.243,1.125 1.125,3.656 1.125,3.656 v 0 l -12.953,25.328 v 0 c 0,0 -1.117,1.973 -3.093,0.848 -1.688,-0.848 -1.688,-2.817 -0.84,-5.352 2.531,-7.879 -1.969,-9.847 -1.969,-9.847 v 0 l 3.938,-7.317 v 0" /><path
         id="path58"
         style="fill:#0f2752;fill-opacity:1;fill-rule:evenodd;stroke:none"
         d="m 268.352,286.121 3.656,-6.754 16.887,8.723 -10.411,20.547 v 0 c 0,0 -1.121,2.531 -3.379,1.406 -3.382,-1.406 0,-8.727 -0.843,-13.23 -1.125,-6.469 -5.91,-10.692 -5.91,-10.692 v 0" /><path
         id="path60"
         style="fill:#0f2752;fill-opacity:1;fill-rule:evenodd;stroke:none"
         d="m 432.223,370.543 c 1.691,-3.094 0.566,-3.375 -0.285,-4.777 -1.403,-1.977 0.851,-5.071 1.976,-5.629 1.402,-0.567 3.375,0.558 3.375,0.558 v 0 l 18.574,9.289 -36.304,71.196 -18.575,-9.571 v 0 c 0,0 -1.972,-0.839 -2.25,-2.25 -0.281,-1.406 0.567,-4.785 3.375,-4.785 1.411,-0.281 2.254,0.285 3.942,-2.527 v 0 l 26.172,-51.504 v 0" /><path
         id="path62"
         style="fill:#0f2752;fill-opacity:1;fill-rule:evenodd;stroke:none"
         d="m 458.957,371.672 -1.969,3.656 v 0 c 1.688,0.844 7.602,7.883 4.504,13.512 -4.222,8.441 -19.418,38.555 -23.078,45.305 -3.098,5.91 -11.816,5.628 -13.789,5.066 v 0 l -1.973,3.375 v 0 c 0,0 8.446,5.066 18.016,1.691 9.285,-3.097 18.008,-10.695 25.332,-25.047 7.309,-14.351 5.621,-28.14 4.777,-31.519 -1.129,-3.656 -1.683,-10.973 -11.82,-16.039 v 0" /><path
         id="path64"
         style="fill:#0f2752;fill-opacity:1;fill-rule:evenodd;stroke:none"
         d="m 533.254,422.047 c 1.687,-3.098 0.559,-3.383 0,-4.789 -1.402,-1.965 0.559,-5.063 1.965,-5.625 1.414,-0.563 3.101,0.562 3.101,0.562 v 0 l 18.575,9.567 -36.024,70.918 -18.582,-9.571 v 0 c 0,0 -2.242,-0.843 -2.527,-2.246 -0.282,-1.41 0.851,-4.789 3.383,-4.789 1.402,-0.281 2.527,0.285 3.933,-2.531 v 0 l 26.176,-51.496 v 0" /><path
         id="path66"
         style="fill:#0f2752;fill-opacity:1;fill-rule:evenodd;stroke:none"
         d="m 559.988,423.168 -1.972,3.66 v 0 c 1.972,0.848 7.593,7.883 4.785,13.508 -4.219,8.445 -19.418,38.555 -23.074,45.59 -2.817,5.91 -11.825,5.347 -14.071,4.785 v 0 l -1.687,3.656 v 0 c 0,0 8.152,4.785 18.008,1.41 9.285,-3.097 18.011,-10.695 25.046,-25.047 7.317,-14.074 5.903,-28.144 4.782,-31.519 -0.844,-3.66 -1.692,-10.977 -11.817,-16.043 v 0" /><path
         id="path68"
         style="fill:#0f2752;fill-opacity:1;fill-rule:evenodd;stroke:none"
         d="m 501.734,406.004 c 2.25,-2.813 1.411,-3.094 0.844,-4.223 -1.41,-2.531 0,-4.781 1.684,-5.625 1.41,-0.847 3.383,0.282 3.383,0.282 v 0 l 18.574,9.566 v 0 c 5.062,2.531 1.969,7.879 -1.41,7.316 -2.246,0.282 -3.379,2.535 -3.379,2.535 v 0 l -42.492,55.438 -16.04,-8.164 2.25,-8.723 27.301,-36.301 -8.445,-4.503 1.969,-6.754 10.976,5.629 4.785,-6.473 v 0" /><path
         id="path70"
         style="fill:#0f2752;fill-opacity:1;fill-rule:evenodd;stroke:none"
         d="m 466.836,447.371 c 0,0 12.945,-50.656 13.234,-52.625 0.274,-1.687 -0.289,-3.094 -1.41,-4.5 -1.414,-1.973 -3.097,-2.816 -1.687,-5.629 0.84,-1.687 2.527,-2.531 4.785,-1.406 v 0 l 10.691,5.629 v 0 c 0,0 2.813,1.406 1.406,4.5 -1.406,2.535 -2.812,1.691 -5.351,1.969 -0.84,0.281 -2.531,0.847 -3.652,4.507 v 0 l -10.422,37.426 -7.594,10.129 v 0" /><path
         id="path72"
         style="fill:#0f2752;fill-opacity:1;fill-rule:evenodd;stroke:none"
         d="m 180.832,310.32 c -1.969,3.098 -0.289,3.379 0.281,4.785 1.125,2.254 -0.57,4.786 -1.976,5.348 -1.121,0.563 -3.09,-0.562 -3.09,-0.562 v 0 l -18.856,-9.289 v 0 c -5.066,-2.813 -1.691,-7.875 1.688,-7.313 2.258,0 3.379,-2.535 3.379,-2.535 v 0 l 42.496,-55.438 16.039,8.161 -2.254,9.003 -37.707,47.84 v 0" /><path
         id="path74"
         style="fill:#0f2752;fill-opacity:1;fill-rule:evenodd;stroke:none"
         d="m 217.133,268.672 -12.098,46.996 v 0 c 0,0 -0.851,3.941 -0.851,5.629 -0.278,1.691 -0.278,3.66 0.57,5.066 1.121,1.692 3.379,3.094 1.969,5.629 -0.848,1.688 -2.817,2.25 -4.782,1.406 v 0 l -10.699,-5.628 v 0 c 0,0 -2.82,-1.407 -1.402,-4.219 1.129,-2.535 2.812,-1.688 5.062,-2.254 1.129,-0.281 2.532,-0.844 3.942,-4.504 v 0 l 10.125,-37.145 8.164,-10.976 v 0" /><path
         id="path76"
         style="fill:#0f2752;fill-opacity:1;fill-rule:evenodd;stroke:none"
         d="m 310.934,333.68 -2.254,4.218 v 0 c 1.691,0.848 5.91,5.915 3.668,10.133 -1.977,4.223 -8.172,16.043 -9.856,19.699 -3.097,5.911 -8.722,3.661 -10.414,3.094 v 0 l -2.254,4.223 v 0 c 0,0 22.235,15.48 34.051,-7.598 9.57,-19.136 -3.934,-29.265 -12.941,-33.769 v 0" /><path
         id="path78"
         style="fill:#0f2752;fill-opacity:1;fill-rule:evenodd;stroke:none"
         d="m 298.27,302.441 c 1.687,-3.093 0.562,-3.375 -0.278,-4.781 -1.129,-2.25 0.84,-4.785 1.965,-5.347 1.691,-0.844 3.379,0 3.379,0 v 0 l 18.852,9.566 v 0 c 5.07,2.816 1.687,8.164 -1.969,7.598 -2.25,0.281 -3.371,2.535 -3.371,2.535 v 0 l -30.961,61.066 -18.574,-9.57 v 0 c 0,0 -2.25,-1.121 -2.536,-2.25 -0.273,-1.406 0.852,-4.781 3.379,-4.781 1.41,0 2.539,0.281 3.942,-2.536 v 0 l 26.172,-51.5 v 0" /><path
         id="path80"
         style="fill:#0f2752;fill-opacity:1;fill-rule:evenodd;stroke:none"
         d="m 585.871,448.781 c 1.406,-3.097 0.289,-3.379 -0.277,-4.785 -1.406,-1.969 0.847,-5.066 1.972,-5.629 1.407,-0.562 3.094,0.563 3.094,0.563 v 0 l 18.856,9.566 -36.305,70.918 -18.57,-9.566 v 0 c 0,0 -2.25,-0.844 -2.532,-2.25 -0.281,-1.41 0.844,-4.785 3.379,-4.785 1.407,-0.286 2.528,0.281 3.934,-2.536 v 0 l 26.449,-51.496 v 0" /><path
         id="path82"
         style="fill:#0f2752;fill-opacity:1;fill-rule:evenodd;stroke:none"
         d="m 579.402,514.066 -3.382,6.754 17.168,8.727 10.417,-20.266 v 0 c 0,0 1.407,-2.812 -0.847,-3.937 -3.371,-1.406 -7.313,5.347 -11.25,7.316 -5.914,2.817 -12.106,1.406 -12.106,1.406 v 0" /><path
         id="path84"
         style="fill:#0f2752;fill-opacity:1;fill-rule:evenodd;stroke:none"
         d="m 596.012,481.703 c 0,0 3.375,2.254 8.433,-4.219 2.258,-2.816 3.383,-4.222 5.352,-3.097 2.25,1.129 1.125,3.66 1.125,3.66 v 0 l -12.949,25.324 v 0 c 0,0 -1.125,1.973 -2.809,1.129 -1.976,-1.129 -1.976,-2.812 -1.129,-5.629 2.531,-7.879 -1.969,-9.57 -1.969,-9.57 v 0 l 3.946,-7.598 v 0" /><path
         id="path86"
         style="fill:#0f2752;fill-opacity:1;fill-rule:evenodd;stroke:none"
         d="m 608.359,455.82 3.375,-6.757 17.168,8.722 -10.41,20.266 v 0 c 0,0 -1.406,2.816 -3.66,1.687 -3.098,-1.687 0,-9.008 -0.844,-13.226 -1.125,-6.754 -5.629,-10.692 -5.629,-10.692 v 0" /><path
         id="path88"
         style="fill:#0f2752;fill-opacity:1;fill-rule:evenodd;stroke:none"
         d="m 164.418,203.664 3.098,-5.906 v 0 c 0,0 4.789,0.281 8.16,-1.41 1.691,-0.844 5.344,-2.535 8.164,-6.469 2.531,-3.379 4.5,-5.633 6.75,-4.785 2.258,1.125 0.281,5.066 -0.84,7.312 -1.129,2.539 -7.602,14.637 -7.602,14.637 0,0 -1.687,4.785 -4.5,3.379 -1.972,-0.848 -0.847,-3.379 -0.847,-4.227 0,-1.125 -0.278,-1.687 -1.125,-1.402 -2.813,0.562 -8.16,0.562 -11.258,-1.129 v 0" /><path
         id="path90"
         style="fill:#0f2752;fill-opacity:1;fill-rule:evenodd;stroke:none"
         d="m 197.633,126.84 -3.383,6.187 v 0 c 0,0 -5.066,-0.562 -9.57,1.977 -2.254,1.121 -5.907,3.934 -9.004,7.879 -2.531,3.375 -4.223,5.625 -6.469,4.785 -2.258,-1.133 -0.566,-5.07 0.563,-7.324 1.406,-2.531 8.718,-17.164 8.718,-17.164 0,0 1.973,-4.782 4.789,-3.379 1.965,0.847 0.84,3.66 0.84,4.222 0,1.125 0.285,1.692 1.125,1.692 2.821,-0.848 9.289,-0.567 12.391,1.125 v 0" /><path
         id="path92"
         style="fill:#0f2752;fill-opacity:1;fill-rule:evenodd;stroke:none"
         d="m 160.516,203.102 3.101,-6.196 v 0 c 0,0 -4.23,-3.937 -1.414,-9.566 2.25,-3.945 4.223,-5.063 8.16,-5.625 3.942,-0.848 12.95,-0.848 19.418,-3.098 4.785,-1.41 10.696,-2.535 17.172,-15.476 9,-17.172 -0.285,-30.391 -7.601,-34.051 v 0 l -3.094,6.469 v 0 c 0,0 5.625,3.937 1.965,11.261 -2.532,5.067 -7.032,5.344 -11.254,6.192 -3.942,0.84 -11.821,0 -18.289,2.531 -8.164,3.375 -10.977,7.035 -15.203,15.473 -5.907,11.261 -4.782,26.175 7.039,32.086 v 0" /><path
         id="path94"
         style="fill:#0f2752;fill-opacity:1;fill-rule:evenodd;stroke:none"
         d="m 317.684,261.355 c -1.965,3.098 -0.563,3.657 0.285,4.786 0.844,2.25 -0.848,4.781 -1.973,5.347 -1.687,0.844 -3.094,-0.281 -3.094,-0.281 v 0 l -17.73,-9.004 v 0 c -5.063,-2.539 -1.68,-7.879 1.691,-7.039 1.969,-0.281 3.371,-2.812 3.371,-2.812 v 0 l 41.657,-55.723 15.191,7.605 -2.527,9.004 -36.871,48.117 v 0" /><path
         id="path96"
         style="fill:#0f2752;fill-opacity:1;fill-rule:evenodd;stroke:none"
         d="m 353.145,219.707 -12.383,46.434 v 0 c 0,0 -0.84,3.941 -1.125,5.629 0,1.687 -0.278,3.66 0.566,5.062 1.406,1.973 3.094,2.816 1.688,5.633 -0.848,1.683 -2.532,2.25 -4.504,1.406 v 0 l -10.129,-5.348 v 0 c 0,0 -2.82,-1.406 -1.406,-4.222 1.406,-2.813 2.808,-1.688 5.066,-2.25 0.836,-0.281 2.527,-0.844 3.656,-4.504 v 0 l 10.696,-36.859 7.875,-10.981 v 0" /><path
         id="path98"
         style="fill:#0f2752;fill-opacity:1;fill-rule:evenodd;stroke:none"
         d="m 422.094,249.816 c 1.691,-2.816 0.558,-3.371 0,-4.777 -1.403,-1.691 0.844,-4.785 1.965,-5.351 1.406,-0.844 3.097,0.281 3.097,0.281 v 0 l 17.449,9.004 -36.023,70.918 -17.727,-8.723 v 0 c 0,0 -1.964,-0.848 -2.25,-2.254 -0.281,-1.687 0.84,-4.781 3.379,-5.066 1.407,0 2.25,0.562 3.934,-2.532 v 0 l 26.176,-51.5 v 0" /><path
         id="path100"
         style="fill:#0f2752;fill-opacity:1;fill-rule:evenodd;stroke:none"
         d="m 447.418,250.379 -1.68,3.66 v 0 c 1.68,0.844 7.032,7.598 4.215,13.508 -4.215,8.16 -19.707,38.269 -23.074,45.308 -3.094,5.911 -11.543,5.629 -13.793,5.067 v 0 l -1.691,3.656 v 0 c 0,0 7.878,4.504 17.175,1.125 9.004,-3.375 17.438,-11.254 24.762,-25.324 7.316,-14.356 6.191,-27.863 5.344,-31.52 -0.84,-3.379 -1.406,-10.414 -11.258,-15.48 v 0" /><path
         id="path102"
         style="fill:#0f2752;fill-opacity:1;fill-rule:evenodd;stroke:none"
         d="m 504.828,278.242 -1.969,3.942 v 0 c 1.969,0.839 5.352,6.75 2.254,12.382 -4.5,8.723 -20.261,39.399 -23.925,46.711 -3.094,5.914 -9.286,6.754 -11.54,6.473 v 0 l -1.683,3.379 v 0 c 0,0 5.629,3.941 15.199,0.281 9.285,-3.66 18.004,-11.535 25.328,-26.172 7.594,-14.351 6.465,-28.425 5.629,-32.078 -0.851,-3.66 -1.695,-10.976 -9.293,-14.918 v 0" /><path
         id="path104"
         style="fill:#0f2752;fill-opacity:1;fill-rule:evenodd;stroke:none"
         d="m 500.047,275.988 -1.973,3.66 v 0 c -1.691,-0.843 -8.437,-0.281 -11.258,5.629 -4.503,8.442 -20.261,39.399 -23.918,46.715 -2.816,5.906 0.278,11.539 1.692,13.227 v 0 l -1.692,3.375 v 0 c 0,0 -6.472,-2.531 -9.285,-12.379 -2.535,-9.57 -1.129,-21.11 6.192,-35.742 7.601,-14.633 19.41,-21.95 22.793,-23.356 3.375,-1.41 10.41,-4.785 17.449,-1.129 v 0" /><path
         id="path106"
         style="fill:#0f2752;fill-opacity:1;fill-rule:evenodd;stroke:none"
         d="m 303.637,188.188 3.379,-6.754 16.32,8.445 -10.414,20.258 v 0 c 0,0 -1.41,2.531 -3.379,1.41 -3.094,-1.41 0.285,-8.719 -0.563,-12.945 -0.839,-6.477 -5.343,-10.414 -5.343,-10.414 v 0" /><path
         id="path108"
         style="fill:#0f2752;fill-opacity:1;fill-rule:evenodd;stroke:none"
         d="m 281.02,180.871 c 1.406,-3.09 0.277,-3.375 -0.286,-4.508 -1.121,-2.242 0.844,-5.058 1.969,-5.621 1.406,-0.566 3.098,0.563 3.098,0.563 v 0 l 17.73,8.718 -31.242,61.352 v 0 c 0,0 -1.684,3.098 -0.281,4.504 1.691,1.406 0.281,7.879 -4.781,5.348 v 0 l -17.454,-9.008 v 0 c 0,0 -1.964,-0.844 -2.242,-2.25 -0.285,-1.688 0.836,-4.781 3.371,-5.067 1.129,0 2.254,0.286 3.657,-2.531 v 0 l 26.461,-51.5 v 0" /><path
         id="path110"
         style="fill:#0f2752;fill-opacity:1;fill-rule:evenodd;stroke:none"
         d="m 249.215,164.832 c 1.965,-2.809 1.125,-3.094 0.558,-4.223 -1.121,-2.531 0.286,-4.777 1.977,-5.629 1.121,-0.843 3.094,0.567 3.094,0.567 v 0 l 18.855,9.285 v 0 c 5.059,2.813 1.969,7.875 -1.691,7.313 -1.973,0.285 -3.379,2.531 -3.379,2.531 v 0 l -42.496,55.441 -15.758,-8.16 1.977,-9.004 27.574,-36.305 -8.723,-4.218 1.973,-6.758 10.976,5.633 5.063,-6.473 v 0" /><path
         id="path112"
         style="fill:#0f2752;fill-opacity:1;fill-rule:evenodd;stroke:none"
         d="m 214.32,206.195 c 0,0 12.664,-50.648 12.942,-52.621 0.285,-1.687 0,-3.097 -1.129,-4.504 -1.406,-1.968 -3.371,-3.093 -1.965,-5.629 1.125,-1.968 2.531,-2.25 4.785,-1.125 v 0 l 10.695,5.352 v 0 c 0,0 3.098,1.402 1.407,4.219 -1.407,2.812 -2.817,1.687 -5.067,2.25 -1.125,0.277 -2.531,0.843 -3.66,4.504 v 0 l -10.41,37.429 -7.598,10.125 v 0" /><path
         id="path114"
         style="fill:#0f2752;fill-opacity:1;fill-rule:evenodd;stroke:none"
         d="m 554.785,344.863 c 0,0 21.672,-20.82 23.074,-21.945 1.973,-1.691 4.223,1.684 6.754,-1.973 1.692,-1.968 0.278,-4.504 -0.84,-5.066 v 0 l -12.101,-6.191 v 0 c 0,0 -1.977,-1.125 -4.504,1.41 -1.688,1.406 -22.797,21.668 -22.797,21.668 v 0 l 10.414,12.097 v 0" /><path
         id="path116"
         style="fill:#0f2752;fill-opacity:1;fill-rule:evenodd;stroke:none"
         d="m 540.285,334.805 -2.246,4.504 v 0 c 1.406,0.843 5.906,5.91 3.652,10.132 -2.246,4.219 -8.156,16.039 -10.128,19.696 -3.094,5.91 -8.442,3.66 -10.415,3.097 v 0 l -1.964,4.219 v 0 c 0,0 21.949,15.762 34.05,-7.594 9.567,-19.136 -3.933,-29.269 -12.949,-34.054 v 0" /><path
         id="path118"
         style="fill:#0f2752;fill-opacity:1;fill-rule:evenodd;stroke:none"
         d="m 527.621,303.566 c 1.692,-3.093 0.567,-3.375 -0.273,-4.785 -1.129,-2.246 0.84,-4.777 1.965,-5.343 1.406,-0.563 3.375,0.281 3.375,0.281 v 0 l 18.574,9.57 v 0 c 5.347,2.813 1.972,7.879 -1.41,7.313 -2.528,0.285 -3.657,2.535 -3.657,2.535 v 0 l -31.238,61.347 -18.574,-9.566 v 0 c 0,0 -1.965,-0.844 -2.246,-2.25 -0.282,-1.691 0.84,-4.785 3.379,-4.785 1.406,-0.281 2.531,0.281 3.937,-2.813 v 0 l 26.168,-51.504 v 0" /><path
         id="path120"
         style="fill:#0f2752;fill-opacity:1;fill-rule:evenodd;stroke:none"
         d="m 388.605,232.652 c 1.973,-2.816 1.407,-3.093 0.567,-4.222 -1.133,-2.532 0.273,-4.5 1.961,-5.629 1.41,-0.844 3.383,0.566 3.383,0.566 v 0 l 18.57,9.563 v 0 c 5.066,2.539 1.973,7.879 -1.406,7.039 -2.246,0.285 -3.657,2.816 -3.657,2.816 v 0 l -42.492,55.438 -15.758,-8.16 2.243,-9.008 27.3,-36.301 -8.441,-4.223 1.688,-7.035 10.976,5.629 5.066,-6.473 v 0" /><path
         id="path122"
         style="fill:#0f2752;fill-opacity:1;fill-rule:evenodd;stroke:none"
         d="m 353.711,274.301 c 0,0 12.945,-50.934 13.223,-52.625 0,-1.969 -0.278,-3.098 -1.403,-4.5 -1.41,-1.969 -3.093,-3.102 -1.691,-5.91 0.844,-1.692 2.531,-2.254 4.504,-1.129 v 0 l 10.691,5.629 v 0 c 0,0 3.094,1.41 1.688,4.222 -1.407,2.535 -3.09,1.688 -5.344,2.25 -0.848,0 -2.531,0.563 -3.656,4.5 v 0 l -10.414,37.434 -7.598,10.129 v 0" /><path
         id="path124"
         style="fill:#ed192d;fill-opacity:1;fill-rule:evenodd;stroke:none"
         d="M 130.613,446.488 127.48,441 l 16.493,-9.977 v 0 c 1.172,-0.793 2.609,-1.574 2.957,-2.968 0.328,-1.11 0.101,-2.246 -0.43,-3.117 -0.523,-0.868 -1.609,-1.758 -2.734,-1.813 -1.137,0.234 -2.301,1.027 -3.168,1.551 v 0 l -17.075,10.23 -4.187,-7.23 L 137,416.91 v 0 c 3.191,-2.113 6.051,-3.113 9.375,-1.836 2.496,0.953 4.926,3.317 5.957,5.336 1.578,2.602 2.594,5.184 1.891,8.254 -0.727,3.629 -3.047,5.215 -6.239,7.328 v 0 l -17.371,10.496 v 0" /><path
         id="path126"
         style="fill:#ed192d;fill-opacity:1;fill-rule:evenodd;stroke:none"
         d="m 184.293,462.109 -23.492,21.489 -4.567,-4.989 6.743,-5.894 6.726,-5.617 -19.109,5.347 -5.09,-5.859 23.187,-21.227 4.582,4.711 -10.859,9.938 v 0 c -1.762,1.617 -2.633,2.14 -4.367,3.191 v 0 l -0.297,0.266 -0.012,0.281 5.735,-2.281 16.254,-4.348 4.566,4.992 v 0" /><path
         id="path128"
         style="fill:#ed192d;fill-opacity:1;fill-rule:evenodd;stroke:none"
         d="m 191.484,505.242 -6.539,-5.078 19.969,-24.75 6.254,5.07 -19.684,24.758 v 0" /><path
         id="path130"
         style="fill:#ed192d;fill-opacity:1;fill-rule:evenodd;stroke:none"
         d="m 235.477,510.574 -3.653,6.035 -7.414,-4.269 -2.734,4.387 9.883,5.789 -3.942,6.3 -16.746,-9.753 16.129,-27.172 6.871,3.964 -5.805,10.165 7.411,4.554 v 0" /><path
         id="path132"
         style="fill:#ed192d;fill-opacity:1;fill-rule:evenodd;stroke:none"
         d="m 270.844,513.273 7.761,2.875 -19.48,26.461 -8.035,-3.171 3.973,-32.5 6.089,2.523 -0.558,6.176 6.636,2.824 3.614,-5.188 v 0 z m -11.684,9.34 -1.265,9.516 5.421,-7.926 -4.156,-1.59 v 0" /><path
         id="path134"
         style="fill:#ed192d;fill-opacity:1;fill-rule:evenodd;stroke:none"
         d="m 312.473,535.68 c 0.394,-2.516 -0.043,-5.352 -2.559,-5.746 -3.633,-0.727 -4.711,4.582 -5.414,7.648 -0.406,2.801 -1.543,9.508 2.094,9.949 2.511,0.676 4.062,-2.633 4.457,-5.152 v 0 l 7.527,1.742 v 0 c -2.039,7.797 -6.715,11.817 -13.422,10.391 -8.379,-1.5 -10.566,-9.485 -9.039,-18.43 1.809,-8.934 7.141,-14.894 14.965,-13.418 6.145,1.113 9.844,6.633 8.961,13.918 v 0 l -7.57,-0.902 v 0" /><path
         id="path136"
         style="fill:#ed192d;fill-opacity:1;fill-rule:evenodd;stroke:none"
         d="m 338.387,535.703 c 1.156,-6.992 6.074,-9.871 11.707,-9.902 5.652,-0.317 11.996,2.785 12.215,10.398 0.132,3.387 -1.129,6.426 -3.735,8.004 -2.32,1.59 -4.875,2.035 -7.445,2.77 -1.137,0.23 -3.133,0.707 -2.926,2.402 -0.07,1.688 1.613,1.766 2.738,1.816 1.965,0.086 3.422,-0.98 4.09,-3.203 v 0 l 6.938,2.282 v 0 c -1.375,5.574 -5.985,7.902 -10.492,7.984 -2.829,0.16 -5.618,-0.531 -7.789,-2.316 -2.188,-1.504 -3.739,-4.672 -3.606,-7.762 -0.23,-7.336 5.773,-9.324 10.617,-10.52 1.137,-0.234 3.41,-0.691 3.215,-2.676 0.074,-1.683 -2.176,-1.785 -3.019,-1.82 -2.543,0.168 -4.278,1.219 -4.965,4 v 0 l -7.543,-1.457 v 0" /><path
         id="path138"
         style="fill:#ed192d;fill-opacity:1;fill-rule:evenodd;stroke:none"
         d="m 336.648,62.9609 12.383,1.1211 v 0 c 2.532,0 5.34,0.2852 7.317,2.2578 1.687,1.9649 2.25,5.0625 1.968,7.5977 -0.281,3.9336 -2.816,6.4727 -5.914,6.7461 v 0 0 c 2.821,1.1328 4.227,3.9453 3.946,7.3203 -0.285,2.5313 -1.41,5.0703 -3.379,6.4727 -1.692,1.1289 -3.938,1.1289 -5.91,1.1289 v 0 l -13.227,-1.1289 2.816,-31.5157 v 0 z m 7.032,7.5938 -0.559,5.6289 3.371,0.2812 v 0 c 0.567,0.2852 1.692,0.2852 2.254,0 0.844,-0.5664 1.41,-1.4023 1.692,-2.5273 0,-0.8516 -0.282,-1.6953 -0.848,-2.2578 -0.559,-0.5547 -1.688,-0.8399 -2.246,-0.8399 v 0 l -3.664,-0.2851 v 0 z m -1.125,12.3828 -0.563,5.3516 3.383,0.2773 v 0 c 1.402,0.2774 3.09,0 3.371,-2.2539 0,-0.8437 -0.281,-1.6836 -0.562,-2.25 -0.567,-0.5586 -1.407,-0.8398 -2.25,-0.8398 v 0 l -3.379,-0.2852 v 0" /><path
         id="path140"
         style="fill:#ed192d;fill-opacity:1;fill-rule:evenodd;stroke:none"
         d="m 402.773,73.6563 8.165,2.2421 -16.883,28.1526 -8.446,-2.258 0.848,-32.6446 6.469,1.6914 -0.274,6.4766 7.028,1.9609 3.093,-5.621 v 0 z m -10.691,10.6875 -0.281,9.2851 4.5,-8.1601 -4.219,-1.125 v 0" /><path
         id="path142"
         style="fill:#ed192d;fill-opacity:1;fill-rule:evenodd;stroke:none"
         d="m 442.176,125.434 -7.317,-3.946 5.629,-10.129 -5.629,-3.089 -5.629,10.406 -7.035,-3.938 14.633,-27.863 7.32,3.6602 -5.628,10.9728 5.628,3.097 5.622,-10.9761 7.324,3.9453 -14.918,27.8598 v 0" /><path
         id="path144"
         style="fill:#ed192d;fill-opacity:1;fill-rule:evenodd;stroke:none"
         d="m 474.07,144.57 -6.472,-5.062 19.976,-24.77 6.477,5.344 -19.981,24.488 v 0" /><path
         id="path146"
         style="fill:#ed192d;fill-opacity:1;fill-rule:evenodd;stroke:none"
         d="m 531.563,152.168 5.347,6.191 -29.265,14.348 -5.625,-6.469 18.289,-27.019 4.5,5.07 -3.661,5.344 4.786,5.347 5.629,-2.812 v 0 z m -14.915,3.098 -5.347,7.593 8.441,-4.5 -3.094,-3.093 v 0" /></g></g></svg>